<?xml version="1.0" encoding="UTF-8" standalone="no"?>
<svg
   xmlns:dc="http://purl.org/dc/elements/1.1/"
   xmlns:cc="http://creativecommons.org/ns#"
   xmlns:rdf="http://www.w3.org/1999/02/22-rdf-syntax-ns#"
   xmlns:svg="http://www.w3.org/2000/svg"
   xmlns="http://www.w3.org/2000/svg"
   xmlns:sodipodi="http://sodipodi.sourceforge.net/DTD/sodipodi-0.dtd"
   xmlns:inkscape="http://www.inkscape.org/namespaces/inkscape"
   width="116.57799"
   height="24.285326"
   viewBox="0 0 116.57799 24.285326"
   version="1.1"
   id="svg4"
   sodipodi:docname="apple-watch.svg"
   style="fill:none"
   inkscape:version="0.92.4 (5da689c313, 2019-01-14)">
  <metadata
     id="metadata10">
    <rdf:RDF>
      <cc:Work
         rdf:about="">
        <dc:format>image/svg+xml</dc:format>
        <dc:type
           rdf:resource="http://purl.org/dc/dcmitype/StillImage" />
      </cc:Work>
    </rdf:RDF>
  </metadata>
  <defs
     id="defs8" />
  <sodipodi:namedview
     pagecolor="#ffffff"
     bordercolor="#666666"
     borderopacity="1"
     objecttolerance="10"
     gridtolerance="10"
     guidetolerance="10"
     inkscape:pageopacity="0"
     inkscape:pageshadow="2"
     inkscape:window-width="640"
     inkscape:window-height="480"
     id="namedview6"
     showgrid="false"
     inkscape:zoom="2.6837607"
     inkscape:cx="58.416989"
     inkscape:cy="12.438386"
     inkscape:window-x="0"
     inkscape:window-y="0"
     inkscape:window-maximized="0"
     inkscape:current-layer="svg4" />
  <path
     d="m 15.129589,5.866859 c -2.0592,-0.14769 -3.8061,1.11695 -4.7797,1.11695 -0.9890697,0 -2.5136997,-1.08511 -4.1303197,-1.05681 -2.12209,0.03183 -4.07933,1.19919 -5.17316,3.04574 -2.20497,3.717 -0.56285899,9.223 1.58473,12.2369 1.05012,1.4751 2.30243,3.1342 3.94819,3.0741 1.58474,-0.0611 2.18311,-0.9967 4.0975597,-0.9967 1.9135,0 2.4536,0.9967 4.1285,0.9648 1.7041,-0.0292 2.7851,-1.5016 3.8271,-2.9847 1.2067,-1.7095 1.7031,-3.3641 1.7322,-3.4543 -0.0382,-0.0124 -3.3234,-1.239 -3.3561,-4.9135 -0.0292,-3.0714 2.5829,-4.54919 2.7022,-4.62083 -1.4836,-2.11981 -3.7742,-2.35328 -4.5812,-2.41165 z m 82.2962,11.99728 v 0.3254 c 0,3.2076 -2.4162,6.0774 -7.2652,6.0774 -4.8353,0 -7.7096,-2.9476 -7.7096,-8.099 v -2.1517 c 0,-5.09833 2.888,-8.13788 7.7224,-8.13788 4.5392,0 7.2524,2.77866 7.2524,6.24718 v 0.1821 h -3.6403 c 0,-1.7599 -1.1549,-3.32517 -3.5857,-3.32517 -2.5921,0 -3.8954,1.68207 -3.8954,5.03377 v 2.1517 c 0,3.3906 1.2906,4.9692 3.9218,4.9692 2.6194,0 3.5593,-1.4353 3.5593,-3.273 z m -66.2001,1.017 h 0.0537 l 3.2642,-12.71537 h 3.8544 l 3.2769,12.71537 h 0.0537 l 3.0365,-12.71537 h 4.0557 l -5.0903,17.80217 h -3.8553 l -3.3707,-12.1688 h -0.0674 l -3.3717,12.1688 h -3.827 l -5.104,-17.80217 h 4.0566 z m 74.043301,-5.5688 h 7.494 v -7.14657 h 3.815 v 17.80217 h -3.815 v -7.5904 h -7.494 v 7.5904 h -3.8 V 6.165769 h 3.8 z M 79.992789,6.165769 v 3.07758 h -5.4655 v 14.72459 h -3.7879 V 9.243349 h -5.4528 v -3.07758 z m -20.536,0 5.8963,17.80137 h -4.0702 l -1.307,-4.4864 h -5.7989 l -1.3279,4.4864 h -3.8006 l 5.91,-17.80137 z m -0.276,10.57697 -2.0602,-7.0687 h -0.04 l -2.0921,7.0687 z m -45.4055,-12.77107 c -0.8798,0.97987 -2.2651,1.72539 -3.6248,1.62369 -0.1930997,-1.39375 0.5173,-2.84765 1.326,-3.75677 0.9026,-1.02409 2.4245,-1.790834 3.6832,-1.838589 0.1621,1.420289 -0.4272,2.851179 -1.3015,3.875279 l -0.041,0.04864 z"
     id="path2"
     inkscape:connector-curvature="0"
     style="clip-rule:evenodd;fill:#d6dae5;fill-rule:evenodd" />
</svg>
