<?xml version="1.0" encoding="UTF-8" standalone="no"?>
<svg
   xmlns:dc="http://purl.org/dc/elements/1.1/"
   xmlns:cc="http://creativecommons.org/ns#"
   xmlns:rdf="http://www.w3.org/1999/02/22-rdf-syntax-ns#"
   xmlns:svg="http://www.w3.org/2000/svg"
   xmlns="http://www.w3.org/2000/svg"
   xmlns:sodipodi="http://sodipodi.sourceforge.net/DTD/sodipodi-0.dtd"
   xmlns:inkscape="http://www.inkscape.org/namespaces/inkscape"
   width="116.57262"
   height="24.073238"
   viewBox="0 0 116.57262 24.073238"
   version="1.1"
   id="svg4"
   sodipodi:docname="atlassian.svg"
   style="fill:none"
   inkscape:version="0.92.4 (5da689c313, 2019-01-14)">
  <metadata
     id="metadata10">
    <rdf:RDF>
      <cc:Work
         rdf:about="">
        <dc:format>image/svg+xml</dc:format>
        <dc:type
           rdf:resource="http://purl.org/dc/dcmitype/StillImage" />
      </cc:Work>
    </rdf:RDF>
  </metadata>
  <defs
     id="defs8" />
  <sodipodi:namedview
     pagecolor="#ffffff"
     bordercolor="#666666"
     borderopacity="1"
     objecttolerance="10"
     gridtolerance="10"
     guidetolerance="10"
     inkscape:pageopacity="0"
     inkscape:pageshadow="2"
     inkscape:window-width="640"
     inkscape:window-height="480"
     id="namedview6"
     showgrid="false"
     inkscape:zoom="2.6837607"
     inkscape:cx="58.161621"
     inkscape:cy="12.210361"
     inkscape:window-x="0"
     inkscape:window-y="0"
     inkscape:window-maximized="0"
     inkscape:current-layer="svg4" />
  <path
     d="m 81.923021,15.747839 c -1.694,-0.4245 -1.694,-0.4422 -1.694,-1.3442 0,-0.6076 0.0619,-0.8977 1.4572,-0.8977 0.9581,0 2.368,0.1592 3.2751,0.3131 0.1239,0.0177 0.2514,-0.0088 0.3534,-0.0884 0.102,-0.0708 0.1676,-0.1857 0.1822,-0.3096 l 0.2586,-2.0207 c 0.0182,-0.23 -0.1275,-0.4422 -0.3643,-0.4953 -1.0565,-0.2352 -2.5137,-0.3891 -3.7159,-0.3891 -4.2078,0 -5.0639,1.5388 -5.0639,3.8505 0,2.5408 0.4827,3.396 3.7014,4.1565 2.1202,0.4953 2.1202,0.8623 2.1202,1.4725 0,0.8012 -0.0728,1.0789 -1.4572,1.0789 -1.1184,0 -2.4117,-0.168 -3.5484,-0.4634 -0.1275,-0.0301 -0.255,-0.0106 -0.3643,0.0531 -0.1093,0.0689 -0.1876,0.1768 -0.2113,0.3007 l -0.3479,1.9287 c -0.0419,0.2211 0.0911,0.4378 0.3097,0.5068 1.2423,0.3891 3.0237,0.6544 4.3316,0.6544 4.0693,0 4.8999,-1.6626 4.8999,-4.1388 0,-2.7415 -0.4991,-3.2545 -4.1276,-4.1866 l 0.0055,0.0177 z m -10.5522,0 c -1.694,-0.4245 -1.694,-0.4422 -1.694,-1.3442 0,-0.6076 0.0619,-0.8977 1.4572,-0.8977 0.9563,0 2.368,0.1592 3.2752,0.3131 0.1238,0.0177 0.2513,-0.0088 0.3533,-0.0884 0.102,-0.0708 0.1676,-0.1857 0.1822,-0.3096 l 0.2586,-2.0207 c 0.0292,-0.23 -0.1238,-0.4422 -0.3552,-0.4953 -1.0382,-0.2352 -2.4955,-0.3891 -3.6977,-0.3891 -4.1968,0 -5.0639,1.5388 -5.0639,3.8505 0,2.5408 0.4919,3.396 3.7087,4.1565 2.1203,0.4953 2.1203,0.8623 2.1203,1.4725 0,0.8012 -0.0729,1.0789 -1.4573,1.0789 -1.1202,0 -2.4135,-0.168 -3.552,-0.4634 -0.1275,-0.0301 -0.255,-0.0106 -0.3643,0.0531 -0.1093,0.0689 -0.1876,0.1768 -0.2113,0.3007 l -0.3643,1.919 c -0.0364,0.2211 0.0911,0.4387 0.3152,0.5076 1.2386,0.3892 3.0201,0.6545 4.3297,0.6545 4.0621,0 4.9,-1.6626 4.9,-4.1388 0,-2.7416 -0.5064,-3.2545 -4.1349,-4.1866 l -0.0055,0.0177 z m -37.3506,-9.29111 c -0.0601,-0.18749 -0.2368,-0.31483 -0.4408,-0.31483 h -4.3143 c -0.2004,0 -0.3826,0.12646 -0.4427,0.31218 l -5.4436,16.74896 c -0.0419,0.1326 -0.0182,0.283 0.0692,0.3979 0.0874,0.115 0.2259,0.1831 0.3734,0.1831 h 2.9691 c 0.2058,0 0.3862,-0.1327 0.4445,-0.3184 l 3.7496,-12.328 c 0,0 0.1002,-0.3095 0.4372,-0.3095 0.3461,0 0.4371,0.3184 0.4371,0.3184 l 1.7396,5.8456 h -2.3316 c -0.2003,0 -0.3825,0.1353 -0.4371,0.3272 l -0.674,2.317 c -0.0364,0.1327 0,0.283 0.0729,0.3892 0.091,0.1123 0.2368,0.1768 0.3825,0.1768 h 3.98 l 1.0474,3.266 c 0.0583,0.1857 0.2368,0.313 0.4372,0.313 h 2.9691 c 0.1457,0 0.2878,-0.0707 0.3752,-0.1857 0.0911,-0.1167 0.1166,-0.2653 0.0729,-0.4015 l -5.4491,-16.76748 -0.0182,0.0283 z m 56.7409,4.32811 h -2.7323 c -0.255,0 -0.4609,0.2007 -0.4609,0.4483 v 12.1335 c 0,0.2476 0.2077,0.4528 0.4627,0.4528 h 2.7323 c 0.255,0 0.4618,-0.2008 0.4618,-0.4511 v -12.1307 c 0,-0.2477 -0.2004,-0.4449 -0.4554,-0.4449 l -0.0091,-0.0071 z m -38.7441,-4.97016 h -2.7323 c -0.255,0 -0.4609,0.20075 -0.4609,0.44837 v 17.10359 c 0,0.2476 0.2077,0.4528 0.4627,0.4528 h 2.7323 c 0.255,0 0.4609,-0.2008 0.4609,-0.4511 V 6.267479 c 0,-0.24763 -0.2004,-0.44484 -0.4554,-0.44484 l -0.0073,-0.00707 z m 61.422599,4.70926 c -1.444,0 -3.416,0.4846 -5.082,1.2452 l -0.201,-0.6545 c -0.054,-0.1945 -0.237,-0.3228 -0.442,-0.3228 h -2.021 c -0.255,0 -0.465,0.2008 -0.465,0.4484 v 12.1335 c 0,0.2476 0.2,0.451 0.455,0.451 h 2.733 c 0.255,0 0.464,-0.1999 0.464,-0.451 v -8.4015 c 0.984,-0.4864 2.368,-0.9905 3.191,-0.9905 0.615,0 0.843,0.2247 0.843,0.8225 v 8.5606 c 0,0.2512 0.21,0.451 0.465,0.451 h 2.732 c 0.255,0 0.461,-0.1998 0.461,-0.451 v -8.9082 c 0,-2.6044 -1.057,-3.9265 -3.135,-3.9265 h -0.002 z m -103.272399,7.2137 c -0.0729,-0.0707 -0.1766998,-0.1459 -0.3551998,-0.1459 -0.22774,0 -0.36071,0.1521 -0.41172,0.2264 -1.27507,1.8925 -1.93083,3.6789 -2.0219,5.4742 -0.00274,0.1326 0.04827,0.2653 0.14117,0.3626 0.09107,0.1061 0.22769,0.1592 0.3643,0.1592 h 3.0273498 c 0.2642,0 0.4828,-0.1946 0.501,-0.4422 0.0728,-0.8667 0.3461,-1.7334 0.8561,-2.6354 0.173,-0.3184 0.0364,-0.6102 -0.0638,-0.7367 -0.5009,-0.6367 -1.1138,-1.3088 -2.0246,-2.2339 l -0.0036,-0.0177 z m 50.7088,1.2912 v 1.5626 c -0.4462,0.2477 -1.2659,0.5837 -2.2587,0.5837 -0.847,0 -1.1111,-0.2476 -1.1111,-1.0789 0,-0.7959 0.1639,-1.0471 1.1658,-1.0471 h 2.204 v -0.0194 z m 38.8166,0 v 1.5626 c -0.455,0.2477 -1.2747,0.5837 -2.2583,0.5837 -0.847,0 -1.1111,-0.2476 -1.1111,-1.0789 0,-0.7959 0.1639,-1.0471 1.1658,-1.0471 h 2.2036 v -0.0194 z m -52.724,2.1976 c -0.0182,-0.1273 -0.0911,-0.2388 -0.2004,-0.3095 -0.1093,-0.0708 -0.2386,-0.092 -0.3661,-0.0619 -0.4918,0.1167 -0.9472,0.1804 -1.3115,0.1804 -0.674,0 -0.9836,-0.283 -0.9836,-0.9197 v -6.4294 h 2.6503 c 0.255,0 0.4627,-0.2034 0.4627,-0.451 v -2.0075 c 0,-0.2476 -0.2095,-0.451 -0.4645,-0.451 h -2.6413 v -3.08554 c 0,-0.13266 -0.0619,-0.25381 -0.1639,-0.34048 -0.1002,-0.08578 -0.2368,-0.12381 -0.3643,-0.10612 l -2.7323,0.37143 c -0.2295,0.02918 -0.4007,0.21844 -0.4007,0.44218 v 2.72383 h -1.491 c -0.255,0 -0.4626,0.2008 -0.4626,0.4484 v 2.0163 c 0,0.2476 0.2185,0.4528 0.4736,0.4528 h 1.4863 v 6.8361 c 0,2.3498 1.2696,3.5375 3.7761,3.5375 0.7104,0 1.9235,-0.1592 2.7141,-0.4245 0.2094,-0.0708 0.3388,-0.2768 0.3042,-0.4953 l -0.296,-1.919 0.0091,-0.0133 z m 12.0759,-10.6963 c -1.3844,0 -3.0675,0.2122 -4.2897,0.5394 -0.2368,0.0619 -0.3826,0.2786 -0.3461,0.5041 l 0.3151,1.9279 c 0.0182,0.1176 0.0911,0.2238 0.1913,0.2945 0.102,0.0708 0.2295,0.0884 0.3533,0.0708 1.1348,-0.2123 2.3079,-0.3361 3.3007,-0.3361 1.9672,0 2.2842,0.4068 2.2842,1.698 v 1.132 h -2.9145 c -2.7942,0 -3.9892,1.1143 -3.9892,3.7497 0,2.5115 1.3115,3.9442 3.5885,3.9442 1.3242,0 2.6467,-0.3537 3.7578,-1.0082 l 0.1184,0.4122 c 0.0546,0.1945 0.2368,0.3272 0.4463,0.3272 h 2.2186 c 0.255,0 0.4609,-0.2034 0.4609,-0.4511 v -8.0653 c 0,-3.4667 -1.4846,-4.7579 -5.4829,-4.7579 l -0.0164,0.0088 z m 38.8106,0 c -1.3844,0 -3.0602,0.2122 -4.2806,0.5394 -0.2277,0.0619 -0.3734,0.2786 -0.3325,0.5041 l 0.3188,1.9279 c 0.0182,0.1176 0.0911,0.2238 0.1913,0.2945 0.1038,0.0708 0.2313,0.0884 0.3552,0.0708 1.1293,-0.2123 2.2951,-0.3361 3.2969,-0.3361 1.9673,0 2.2774,0.4068 2.2774,1.698 v 1.132 h -2.9149 c -2.8052,0 -4.0001,1.1143 -4.0001,3.7497 0,2.5115 1.3088,3.9442 3.5884,3.9442 1.3234,0 2.6413,-0.3537 3.752599,-1.0082 l 0.118,0.4122 c 0.055,0.1945 0.237,0.3272 0.446,0.3272 h 2.205 c 0.255,0 0.464,-0.2034 0.464,-0.4511 v -8.0653 c 0,-3.4667 -1.485,-4.7579 -5.482799,-4.7579 l 0.0046,0.0088 z m -75.4053,-4.6341 c -0.0911,-0.06632 -0.1958,-0.09993 -0.3033,-0.09993 -0.0729,0 -0.1275,0.01061 -0.1822,0.03184 -1.0929,0.4015 -2.1858,0.70749 -3.1876,0.93212 -0.2004,0.05306 -0.3789,0.19456 -0.4372,0.37143 -0.7286,1.94559 -2.6048,3.80274 -4.5539,5.73064 -0.0728,0.0708 -0.1821,0.1769 -0.3643,0.1769 -0.1821,0 -0.2914,-0.0884 -0.3643,-0.1645 -1.9672,-1.9367 -3.8252098,-3.77622 -4.5538198,-5.72182 -0.07287,-0.17687 -0.2368,-0.31837 -0.43717,-0.37143 -1.00185,-0.22993 -2.11299,-0.53946 -3.1877,-0.93742 -0.05464,-0.01769 -0.12386,-0.02653 -0.18215,-0.02653 -0.10929,0 -0.21494,0.03537 -0.3042,0.09993 -0.13843,0.09728 -0.20947,0.26531 -0.19308,0.42449 0.16394,1.61485 0.8288,3.19258 2.0128,4.84628 1.12025,1.5565 2.56837,2.998 3.9800198,4.39 2.5866,2.5647 5.0366,4.9878 5.2534,7.8001 0.0182,0.2511 0.2368,0.4475 0.4954,0.4475 h 3.042 c 0.1366,0 0.2696,-0.0531 0.3643,-0.1504 0.0947,-0.0973 0.1457,-0.2264 0.1366,-0.359 -0.0965,-1.8775 -0.8251,-3.7586 -2.2277,-5.751 -0.2915,-0.4157 -0.6011,-0.8225 -0.9318,-1.2205 -0.1329,-0.1591 -0.0765,-0.3625 0.0256,-0.4616 l 0.3096,-0.3042 c 1.409,-1.3885 2.8598,-2.83 3.9801,-4.3865 1.184,-1.6493 1.8397,-3.21903 2.0082,-4.83299 0.0182,-0.16361 -0.0583,-0.33606 -0.1931,-0.43599 l 0.0091,-0.01327 z m -9.0166,1.45036 c 0.9535,0 1.5073,-0.05925 1.7004,-0.05925 0.2186,0 0.4554,0.17687 0.4554,0.44218 0,0.07075 -0.0183,0.12381 -0.0365,0.17687 -0.1275,0.32544 -0.7104,1.50694 -1.7851,2.52044 -0.1275,0.1132 -0.255,0.1344 -0.3461,0.1344 -0.091,0 -0.2368,-0.0212 -0.3588,-0.1344 -1.0747,-1.0135 -1.6503,-2.19323 -1.776,-2.52398 -0.0182,-0.05306 -0.0364,-0.10612 -0.0364,-0.18571 0,-0.25647 0.224,-0.45103 0.459,-0.45103 0.1949,0 0.7468,0.05306 1.7013,0.05306 h 0.0036 l 0.0183,0.01769 z m 77.3261,-1.5273 h -2.725 c -0.2551,0 -0.4627,0.19456 -0.4627,0.44218 v 2.33472 c 0,0.24762 0.2076,0.44926 0.4627,0.44926 h 2.7323 c 0.255,0 0.4617,-0.19456 0.4617,-0.44218 v -2.35329 c 0,-0.24762 -0.2067,-0.4466 -0.4617,-0.4466 l -0.0073,0.02122 z M 26.739521,0.24939 c -0.1211,-0.159185 -0.3097,-0.247621 -0.51,-0.247621 -0.1029,0 -0.205,0.021224 -0.2915,0.070749 -3.7341,1.980971 -8.0575,3.029821 -12.5094,3.031591 -4.4499998,0 -8.7743298,-1.05062 -12.50483977,-3.03336 C 0.83270123,0.017687 0.73251123,0 0.63233123,0 c -0.200369,0 -0.391631,0.088436 -0.510031,0.247621 -0.176689,0.212248 -0.182154,0.601368 0.1184,0.831298 1.86708097,1.34423 3.92724097,2.40547 6.12037097,3.13065 2.27692,0.74286 4.6522498,1.13198 7.0675498,1.13198 2.4172,0 4.7943,-0.38912 7.0676,-1.13198 2.1949,-0.72518 4.2551,-1.78642 6.1258,-3.13065 0.3006,-0.22993 0.2915,-0.61905 0.1184,-0.848985 V 0.24939 Z"
     id="path2"
     inkscape:connector-curvature="0"
     style="clip-rule:evenodd;fill:#5982e7;fill-rule:evenodd" />
</svg>
