<?xml version="1.0" encoding="UTF-8" standalone="no"?>
<svg
   xmlns:dc="http://purl.org/dc/elements/1.1/"
   xmlns:cc="http://creativecommons.org/ns#"
   xmlns:rdf="http://www.w3.org/1999/02/22-rdf-syntax-ns#"
   xmlns:svg="http://www.w3.org/2000/svg"
   xmlns="http://www.w3.org/2000/svg"
   xmlns:sodipodi="http://sodipodi.sourceforge.net/DTD/sodipodi-0.dtd"
   xmlns:inkscape="http://www.inkscape.org/namespaces/inkscape"
   width="116.57861"
   height="28.940701"
   viewBox="0 0 116.57861 28.940701"
   version="1.1"
   id="svg4"
   sodipodi:docname="audi.svg"
   style="fill:none"
   inkscape:version="0.92.4 (5da689c313, 2019-01-14)">
  <metadata
     id="metadata10">
    <rdf:RDF>
      <cc:Work
         rdf:about="">
        <dc:format>image/svg+xml</dc:format>
        <dc:type
           rdf:resource="http://purl.org/dc/dcmitype/StillImage" />
      </cc:Work>
    </rdf:RDF>
  </metadata>
  <defs
     id="defs8" />
  <sodipodi:namedview
     pagecolor="#ffffff"
     bordercolor="#666666"
     borderopacity="1"
     objecttolerance="10"
     gridtolerance="10"
     guidetolerance="10"
     inkscape:pageopacity="0"
     inkscape:pageshadow="2"
     inkscape:window-width="640"
     inkscape:window-height="480"
     id="namedview6"
     showgrid="false"
     inkscape:zoom="2.6837607"
     inkscape:cx="51.8513"
     inkscape:cy="14.4407"
     inkscape:window-x="0"
     inkscape:window-y="0"
     inkscape:window-maximized="0"
     inkscape:current-layer="svg4" />
  <path
     d="m 105.42161,17.6368 c 0,-2.3037 -0.97,-4.9701 -3.987,-8.68706 L 94.157113,0 h -10.1314 l 5.7679,6.27897 c 0.9718,1.04708 2.2095,1.98805 2.2095,1.98805 -1.4026,-0.78443 -3.1785,-1.09838 -4.5811,-1.09838 -3.3407,0 -6.7361,0.68096 -9.7544,2.30288 -3.2332,1.72628 -5.3917,4.60488 -5.3917,8.42618 0,2.9299 1.3497,5.1806 3.0738,6.9069 3.8799,3.77 10.9411,4.1353 13.5286,4.1353 3.827,0 9.8108,-0.8384 13.204297,-3.8205 1.996,-1.7793 3.343,-4.2387 3.343,-7.4817 z m 11.157,-9.89156 h -8.785 V 28.2598 h 8.785 z M 44.357213,28.2598 24.953213,0 h -10.8864 l 3.0083,3.45343 L 0,28.2598 h 9.809013 l 2.9263,-4.6571 h 18.5013 l 2.9874,4.6553 h 10.1332 z m 25.7082,-8.5827 V 7.74524 h -8.5138 v 9.15846 c 0,2.6177 -0.1093,3.3482 -0.2705,4.0283 -0.592,1.8837 -2.6413,2.7203 -4.7451,2.7203 -2.9099,0 -4.2579,-1.0993 -4.7952,-2.8265 -0.164,-0.5748 -0.2159,-1.2009 -0.2696,-1.8306 -0.0547,-0.6792 0,-1.4123 0,-2.1976 V 7.74524 h -8.6232 V 19.7283 c 0,2.6708 0.9153,4.658 2.4245,6.0199 2.5866,2.4585 6.9528,3.1925 10.9957,3.1925 4.9054,0 8.6796,-0.6809 11.3737,-3.2456 1.4026,-1.3088 2.4263,-3.0351 2.4263,-6.018 z m 26.9497,-1.7794 c 0,2.1446 -1.4554,3.7674 -3.2879,4.6571 -1.5082,0.7853 -3.2879,0.994 -4.8516,0.994 -1.5629,0 -3.3954,-0.3122 -4.9045,-1.0462 -1.8325,-0.8888 -3.2333,-2.616 -3.2333,-4.5014 0,-2.2489 1.7779,-4.0283 3.8799,-4.9188 1.2933,-0.5766 2.8571,-0.7853 4.0957,-0.7853 1.1859,0 2.9118,0.1565 4.2579,0.6809 2.4263,0.9949 4.0438,2.8777 4.0438,4.9197 z m -69.1984,0.1902 h -11.7262 l 5.8435,-9.3619 5.8836,9.3619 z"
     id="path2"
     inkscape:connector-curvature="0"
     style="clip-rule:evenodd;fill:#d6dae5;fill-rule:evenodd" />
</svg>
