<?xml version="1.0" encoding="UTF-8" standalone="no"?>
<svg
   xmlns:dc="http://purl.org/dc/elements/1.1/"
   xmlns:cc="http://creativecommons.org/ns#"
   xmlns:rdf="http://www.w3.org/1999/02/22-rdf-syntax-ns#"
   xmlns:svg="http://www.w3.org/2000/svg"
   xmlns="http://www.w3.org/2000/svg"
   xmlns:sodipodi="http://sodipodi.sourceforge.net/DTD/sodipodi-0.dtd"
   xmlns:inkscape="http://www.inkscape.org/namespaces/inkscape"
   width="116.58643"
   height="29"
   viewBox="0 0 116.58643 29"
   version="1.1"
   id="svg4"
   sodipodi:docname="bitbucket.svg"
   style="fill:none"
   inkscape:version="0.92.4 (5da689c313, 2019-01-14)">
  <metadata
     id="metadata10">
    <rdf:RDF>
      <cc:Work
         rdf:about="">
        <dc:format>image/svg+xml</dc:format>
        <dc:type
           rdf:resource="http://purl.org/dc/dcmitype/StillImage" />
      </cc:Work>
    </rdf:RDF>
  </metadata>
  <defs
     id="defs8" />
  <sodipodi:namedview
     pagecolor="#ffffff"
     bordercolor="#666666"
     borderopacity="1"
     objecttolerance="10"
     gridtolerance="10"
     guidetolerance="10"
     inkscape:pageopacity="0"
     inkscape:pageshadow="2"
     inkscape:window-width="640"
     inkscape:window-height="480"
     id="namedview6"
     showgrid="false"
     inkscape:zoom="2.6837607"
     inkscape:cx="58.5"
     inkscape:cy="14.5"
     inkscape:window-x="0"
     inkscape:window-y="0"
     inkscape:window-maximized="0"
     inkscape:current-layer="svg4" />
  <path
     d="m 14.9321,23.2004 c -0.1704,0 -0.2551,0.0831 -0.2551,0.0831 0,0 -2.1339,1.6626 -5.9746,1.6626 -3.83889,-9e-4 -5.97009,-1.6635 -5.97009,-1.6635 0,0 -0.17032,-0.0822 -0.25502,-0.0822 -0.17122,0 -0.34245,0.0831 -0.34245,0.3316 v 0.0822 c 0.34154,1.7405 0.59747,2.983 0.59747,3.1484 C 2.98732,28.006 5.5484,29 8.61952,29 c 3.07198,0 5.63218,-0.994 5.88808,-2.2374 0,-0.1654 0.2551,-1.4079 0.592,-3.1484 V 23.532 c 0.082,-0.1663 0,-0.3316 -0.173,-0.3316 z m 17.321,-4.0593 c 1.1093,-0.5801 1.5364,-1.4088 1.5364,-2.6531 v -1.7395 c 0,-2.4851 -1.5364,-3.7267 -4.7788,-3.7267 h -6.4846 c -0.2551,0 -0.4263,0.1663 -0.4263,0.4157 v 16.2368 c 0,0.2494 0.1703,0.4157 0.4263,0.4157 h 6.9965 c 3.072,0 4.8635,-1.4919 4.8635,-4.0592 v -1.7422 c 0,-1.4902 -0.7678,-2.6496 -2.133,-3.1484 z m 6.6559,-3.6462 h -2.6413 c -0.255,0 -0.428,0.1663 -0.428,0.4157 v 11.7637 c 0,0.2477 0.173,0.4157 0.428,0.4157 h 2.6504 c 0.255,0 0.428,-0.168 0.428,-0.4157 V 15.9097 c 0,-0.2476 -0.173,-0.4157 -0.428,-0.4157 z m 63.572,-0.2476 c -3.5797,0 -5.3739,1.7395 -5.3739,4.9701 v 3.2315 c 0,3.3145 1.7942,4.8887 5.5469,4.8887 1.539,0 3.16,-0.2476 4.526,-0.7464 0.171,-0.0822 0.341,-0.2476 0.255,-0.497 l -0.426,-1.8218 c 0,-0.084 -0.085,-0.2494 -0.17,-0.2494 -0.086,-0.0831 -0.255,-0.0831 -0.342,-0.0831 -1.193,0.3316 -2.388,0.4979 -3.497,0.4979 -1.963,0 -2.304,-0.5802 -2.304,-1.9058 v -0.4157 h 6.57 c 0.255,0 0.428,-0.1645 0.428,-0.413 v -2.3196 c -0.086,-3.48 -1.707,-5.1382 -5.205,-5.1382 z M 55.6398,25.3555 c -0.6831,0 -1.1931,0 -1.7031,-0.084 v -6.3851 c 0.7686,-0.336 1.7923,-0.6632 2.5592,-0.6632 1.0246,0 1.4518,0.4156 1.4518,1.3265 v 3.7232 c 0,1.4088 -0.3416,2.072 -2.3043,2.072 z m 60.6662,0.2477 c 0,-0.0832 -0.082,-0.2477 -0.167,-0.3317 -0.085,-0.0884 -0.255,-0.0884 -0.341,-0.0884 -0.512,0.0796 -0.938,0.168 -1.28,0.168 -0.683,0 -0.938,-0.2476 -0.938,-0.9109 v -6.217 h 2.559 c 0.255,0 0.425,-0.1681 0.425,-0.4157 v -1.9014 c 0,-0.2476 -0.17,-0.4156 -0.425,-0.4156 h -2.56 v -2.9803 c 0,-0.168 -0.087,-0.2521 -0.173,-0.3343 -0.085,-0.0831 -0.255,-0.0831 -0.341,-0.0831 l -2.644,0.336 c -0.255,0 -0.428,0.2476 -0.428,0.413 v 2.6513 h -1.448 c -0.255,0 -0.429,0.1663 -0.429,0.4157 v 1.904 c 0,0.2476 0.174,0.4157 0.429,0.4157 h 1.448 v 6.6256 c 0,2.2374 1.196,3.396 3.67,3.396 0.683,0 1.876,-0.1636 2.645,-0.4157 0.171,-0.0796 0.342,-0.2476 0.255,-0.4952 l -0.255,-1.7387 z m -67.4897,0 c 0,-0.0832 -0.0847,-0.2477 -0.1703,-0.3317 -0.0847,-0.0884 -0.255,-0.0884 -0.3406,-0.0884 -0.4281,0.0796 -0.9381,0.168 -1.2797,0.168 -0.683,0 -0.9381,-0.2476 -0.9381,-0.9109 v -6.217 h 2.5593 c 0.255,0 0.4281,-0.1681 0.4281,-0.4157 v -1.9014 c 0,-0.2476 -0.1731,-0.4156 -0.4281,-0.4156 h -2.562 v -2.9803 c 0,-0.168 -0.0856,-0.2521 -0.1712,-0.3343 -0.0856,-0.0831 -0.255,-0.0831 -0.3416,-0.0831 l -2.643,0.336 c -0.255,0 -0.4253,0.2476 -0.4253,0.413 v 2.6513 h -1.4554 c -0.2551,0 -0.4281,0.1663 -0.4281,0.4157 v 1.904 c 0,0.2476 0.1712,0.4157 0.4281,0.4157 h 1.4499 v 6.6256 c 0,2.2374 1.1931,3.396 3.6677,3.396 0.683,0 1.8762,-0.1636 2.6412,-0.4157 0.173,-0.0796 0.3415,-0.2476 0.255,-0.4952 l -0.255,-1.7387 z M 84.227,25.4378 c 0,-0.0831 -0.0856,-0.2494 -0.1703,-0.3316 -0.0847,-0.0832 -0.255,-0.0832 -0.3406,-0.0832 -0.7678,0.1654 -1.5356,0.2476 -2.3043,0.2476 -1.7059,0 -2.133,-0.413 -2.133,-1.8217 v -3.396 c 0,-1.4097 0.5118,-1.8235 2.133,-1.8235 0.4281,0 1.3662,0.0831 2.3043,0.2476 0.0847,0 0.255,0 0.3406,-0.0823 0.0838,-0.0822 0.1694,-0.1653 0.1694,-0.3316 l 0.3434,-1.9881 c 0,-0.2476 -0.0866,-0.4138 -0.3425,-0.497 -1.0228,-0.3316 -2.2177,-0.4156 -2.8999,-0.4156 -4.011,0 -5.6331,1.4097 -5.6331,4.8905 v 3.3128 c 0,3.48 1.6212,4.8888 5.6304,4.8888 0.9381,0 2.0474,-0.1654 2.9008,-0.4157 0.255,-0.0813 0.3415,-0.2476 0.3415,-0.4952 L 84.2243,25.4378 Z M 25.6919,25.1062 h 3.1585 c 1.3662,0 1.8762,-0.3317 1.8762,-1.4088 v -1.247 c 0,-1.0789 -0.4244,-1.4946 -1.6212,-1.4946 h -1.1111 c -0.255,0 -0.4281,-0.168 -0.4281,-0.4156 v -2.0597 c 0,-0.2494 0.1731,-0.4156 0.4281,-0.4156 h 0.5975 c 1.1093,0 1.5355,-0.4139 1.5355,-1.4079 v -1.4928 c 0,-0.5802 -0.1657,-1.1603 -1.5301,-1.1603 h -2.9135 v 11.1023 z m 47.952,-9.6113 h -2.6413 c -0.255,0 -0.428,0.1663 -0.428,0.4157 v 8.1184 c -0.9381,0.497 -2.3043,0.994 -3.0693,0.994 -0.5984,0 -0.8561,-0.2476 -0.8561,-0.8286 v -8.2785 c 0,-0.2477 -0.1731,-0.4157 -0.4281,-0.4157 h -2.6494 c -0.255,0 -0.4263,0.168 -0.4263,0.4157 v 8.6163 c 0,2.4851 1.0219,3.8116 3.0693,3.8116 1.3662,0 3.328,-0.4979 4.9491,-1.2434 l 0.1704,0.6633 c 0.0883,0.1662 0.2595,0.3325 0.428,0.3325 h 1.9645 c 0.2551,0 0.4263,-0.168 0.4263,-0.4157 V 15.9097 C 74.0674,15.7416 73.898,15.494 73.6411,15.494 Z M 8.70604,9.53077 C 3.92541,9.53077 0,10.7715 0,12.3457 c 0,0.4156 1.0237,6.2967 1.45086,8.6172 0.17031,1.0763 2.98732,2.5682 7.25245,2.5682 4.26609,0 6.99649,-1.4857 7.25249,-2.5646 0.4189,-2.3171 1.4481,-8.1981 1.4481,-8.6137 C 17.3128,10.7786 13.4785,9.53696 8.69693,9.53696 Z m 0,12.09543 c -1.53464,0 -2.72957,-1.1603 -2.72957,-2.6513 0,-1.4946 1.1931,-2.6531 2.72866,-2.6531 1.53557,0 2.73047,1.1585 2.73047,2.6531 0,1.4061 -1.1949,2.6442 -2.73047,2.6442 z m 87.88736,5.7165 -3.4991,-5.6334 3.4153,-5.5449 c 0.0847,-0.1681 0.0847,-0.329 0,-0.4157 -0.0865,-0.1618 -0.2568,-0.2476 -0.428,-0.2476 h -2.9008 c -0.1712,0 -0.3425,0.0858 -0.4281,0.2476 L 89.5104,21.222 V 11.1049 c 0,-0.2494 -0.1731,-0.4156 -0.4281,-0.4156 h -2.6458 c -0.255,0 -0.428,0.1662 -0.428,0.4156 v 16.4845 c 0,0.2477 0.173,0.4157 0.428,0.4157 h 2.6449 c 0.255,0 0.4281,-0.168 0.4281,-0.4157 v -5.3857 l 3.4099,5.6334 c 0.0856,0.168 0.255,0.2502 0.3415,0.2502 h 2.8999 c 0.255,0 0.4281,-0.1662 0.4281,-0.4156 0.0838,-0.1645 0.0838,-0.2476 0,-0.3308 z m 4.0106,-7.0395 v -0.4157 c 0,-1.2381 0.596,-1.7333 1.876,-1.7333 1.451,0 1.707,0.6633 1.707,1.7422 v 0.4156 h -3.583 z M 8.70695,17.5696 c 0.7523,0 1.36615,0.5996 1.36615,1.3266 0,0.734 -0.61385,1.3265 -1.36615,1.3265 -0.75229,0 -1.36615,-0.5925 -1.36615,-1.3265 0,-0.727 0.61204,-1.3266 1.36615,-1.3266 z m 48.72065,-2.317 c -1.2796,0 -2.6448,0.3343 -3.4973,0.6633 v -4.7225 c 0,-0.2477 -0.1712,-0.4157 -0.4281,-0.4157 h -2.6449 c -0.255,0 -0.428,0.168 -0.428,0.4157 v 16.4049 c 0,0.2476 0.173,0.4156 0.3415,0.4156 1.6212,0.2477 3.5839,0.4157 4.6932,0.4157 4.9491,0 5.9728,-2.0712 5.9728,-5.1382 v -3.5639 c 0,-2.9803 -1.3661,-4.4749 -4.0101,-4.4749 z M 36.2668,13.758 c -0.255,0 -0.428,-0.1662 -0.428,-0.4156 v -2.2375 c 0,-0.2494 0.173,-0.4156 0.428,-0.4156 h 2.6458 c 0.2568,0 0.4281,0.2494 0.4281,0.4156 v 2.2357 c 0,0.2476 -0.1713,0.4157 -0.4281,0.4157 H 36.2668 Z M 8.70513,13.1743 c -3.07294,0 -5.54658,-0.4952 -5.54658,-1.1585 0,-0.6632 2.47364,-1.1603 5.54658,-1.1603 3.07107,0 5.54657,0.4971 5.54657,1.1586 0,0.6632 -2.4755,1.1611 -5.54657,1.1611 z M 42.92,6.63006 c -0.4262,0 -1.1093,-0.16626 -1.4509,-0.41565 -0.0819,0 -0.0819,-0.08136 -0.0819,-0.16449 l 0.1703,-0.66327 0.082,-0.08225 h 0.1703 c 0.428,0.08844 0.8524,0.16803 1.2787,0.16803 0.5191,0 0.5191,-0.15918 0.5191,-0.41565 0,-0.15918 0,-0.32721 -0.7696,-0.49524 -1.1931,-0.24762 -1.3661,-0.57484 -1.3661,-1.48573 0,-0.82776 0.2568,-1.40613 1.7942,-1.40613 0.4253,0 1.0228,0.07959 1.3661,0.16449 0,0 0.082,0.08313 0.082,0.16537 l -0.0847,0.74287 -0.0847,0.08313 h -0.1712 c -0.1512,0 -0.3334,-0.01504 -0.5192,-0.03272 L 43.6932,2.7769 C 43.5074,2.75921 43.3253,2.74152 43.1759,2.74152 c -0.5118,0 -0.5118,0.08225 -0.5118,0.33075 0,0.33606 0,0.33606 0.5974,0.50055 1.2787,0.33252 1.4482,0.58103 1.4482,1.57417 0,0.90558 -0.337,1.48396 -1.7578,1.4928 h -0.0328 z m -3.7569,0 c -0.5101,0 -1.1084,-0.16626 -1.7059,-0.41565 -0.0856,0 -0.0856,-0.08136 -0.0856,-0.16449 L 37.5428,5.38665 37.6339,5.3044 h 0.173 c 0.4254,0.08844 0.8525,0.16803 1.2788,0.16803 0.51,0 0.51,-0.15918 0.51,-0.41565 0,-0.15918 0,-0.32721 -0.7669,-0.49524 -1.1931,-0.24762 -1.3661,-0.57484 -1.3661,-1.48573 0,-0.82776 0.2577,-1.40613 1.7942,-1.40613 0.4262,0 1.0237,0.07959 1.3661,0.16449 0.0838,0 0.1694,0.08313 0.1694,0.16537 l -0.0838,0.7464 -0.0837,0.08225 h -0.0911 c -0.1485,0 -0.3306,-0.01769 -0.5164,-0.03537 L 39.8571,2.77778 c -0.1858,-0.01769 -0.368,-0.03184 -0.5192,-0.03184 -0.5191,0 -0.5191,0.0796 -0.5191,0.32722 0,0.3334 0,0.3334 0.5993,0.49878 1.2796,0.3334 1.4508,0.58191 1.5355,1.57416 0,0.90647 -0.3369,1.48573 -1.7577,1.49458 H 39.1631 Z M 54.6097,1.74131 c -0.5128,0 -1.1958,0.16626 -1.878,0.41565 L 52.6461,1.90757 c 0,-0.08313 -0.0847,-0.08313 -0.1703,-0.08313 H 51.708 c -0.0856,0 -0.1712,0.08313 -0.1712,0.16537 v 4.39263 c 0,0.08136 0.0856,0.16449 0.1712,0.16449 h 1.0237 c 0.0856,0 0.1703,-0.08313 0.1703,-0.16537 V 3.3137 c 0.3416,-0.16537 0.8534,-0.33075 1.1949,-0.33075 0.2551,0 0.3416,0.08225 0.3416,0.33075 v 3.06874 c 0,0.08136 0.0847,0.16449 0.1703,0.16449 h 1.0201 c 0.0819,0 0.173,-0.08313 0.173,-0.16537 V 3.14568 C 55.7108,2.15165 55.3738,1.73689 54.6088,1.73689 Z m -8.1924,0.08313 h -1.0246 c -0.0847,0 -0.1694,0.08313 -0.1694,0.16537 v 4.39263 c 0,0.08136 0.0847,0.16449 0.1703,0.16449 h 1.0292 c 0.0893,0 0.1731,-0.08313 0.1731,-0.16537 v -4.3944 c 0,-0.08224 -0.0838,-0.16537 -0.1731,-0.16537 z M 32.4234,0.0026531 h -1.0237 c -0.0847,0 -0.1703,0.08224561 -0.1703,0.16449091 V 6.38244 c 0,0.08136 0.0819,0.16449 0.1639,0.16449 h 1.0292 c 0.0819,0 0.1675,-0.08313 0.1675,-0.16537 V 0.16537601 C 32.59,0.08313001 32.5044,0 32.4197,0 Z m -6.4847,0.24762091 c 0,-0.08313 -0.0847,-0.08313 -0.1703,-0.08313 h -1.5356 c -0.0856,0 -0.1712,0.08313 -0.1712,0.08313 L 22.0943,6.29931 V 6.4638 c 0,0.08313 0.082,0.08313 0.1667,0.08313 h 1.1112 c 0.0837,0 0.1684,-0.08313 0.1684,-0.08313 l 1.3662,-4.47487 c 0,0 0,-0.08136 0.1703,-0.08136 0.0838,0 0.1694,0.08224 0.1694,0.08224 l 0.5984,2.07206 h -0.8543 c -0.0874,0 -0.1731,0.08225 -0.1731,0.08225 l -0.255,0.82246 V 5.1293 c 0,0 0.0847,0.08313 0.1703,0.08313 h 1.4482 l 0.3424,1.16028 c 0,0.08136 0.0856,0.08136 0.1712,0.08136 h 1.1112 c 0.0856,0 0.0856,0 0.173,-0.08401 V 6.20203 L 25.9387,0.24939001 Z M 34.7276,5.55291 c 0.4281,0 0.6831,-0.08313 0.8534,-0.16538 V 4.72426 h -0.8534 c -0.3415,0 -0.4262,0.16538 -0.4262,0.41388 0,0.32899 0.0838,0.413 0.4189,0.41565 h 0.0073 z m -4.0957,0 c 0,-0.08313 0,-0.08313 -0.0847,-0.08313 H 30.376 c -0.1703,0.08313 -0.3416,0.08313 -0.5119,0.08313 -0.255,0 -0.3415,-0.08313 -0.3415,-0.33164 V 2.81846 h 0.9381 c 0.0865,0 0.1712,-0.08224 0.1712,-0.16537 V 1.98981 c 0,-0.08224 -0.0847,-0.16537 -0.1703,-0.16537 H 29.5235 V 0.66415601 c 0,-0.082246 0,-0.082246 -0.0856,-0.082246 0,0 -0.0856,-0.079592 -0.1712,0 l -1.0238,0.168029 c -0.0856,0 -0.1703,0.088436 -0.1703,0.168029 V 1.90845 h -0.5118 c -0.082,0 -0.164,0.08667 -0.164,0.16803 v 0.74729 c 0,0.08401 0.0875,0.16803 0.1731,0.16803 h 0.5128 v 2.48505 c 0,0.82777 0.4262,1.24253 1.3661,1.24253 0.255,0 0.6813,-0.08401 0.9381,-0.16803 0.3406,-0.16537 0.3406,-0.16537 0.3406,-0.24762 l -0.0856,-0.7464 z m 18.1744,0 c 0.4281,0 0.6831,-0.08313 0.8534,-0.16538 V 4.72426 h -0.8534 c -0.3406,0 -0.4262,0.16538 -0.4262,0.41388 0,0.32899 0.0837,0.413 0.4189,0.41565 h 0.0073 z M 34.9826,1.74131 c -0.51,0 -1.1084,0.08313 -1.5346,0.16626 -0.0856,0 -0.1703,0.08224 -0.0856,0.16537 l 0.0911,0.66328 c 0,0.08224 0,0.08224 0.0892,0.08224 h 0.0847 c 0.4281,-0.08224 0.8534,-0.08224 1.1931,-0.08224 0.6831,0 0.8543,0.16537 0.8543,0.57925 v 0.41565 h -1.0291 c -1.0247,0 -1.4509,0.413 -1.4509,1.32478 0,0.91089 0.5118,1.4079 1.2796,1.4079 0.5101,0 0.9381,-0.16537 1.3644,-0.33075 v 0.16538 c 0,0.08313 0.0856,0.08313 0.1703,0.08313 h 0.7687 c 0.0819,0 0.173,-0.08844 0.173,-0.16803 V 3.3933 c 0,-1.24253 -0.51,-1.6573 -1.96,-1.6573 z m 13.9949,0 c -0.5118,0 -1.1093,0.08313 -1.5365,0.16626 -0.091,0 -0.173,0.08224 -0.091,0.16537 l 0.0819,0.66328 c 0,0.08224 0,0.08224 0.0847,0.08224 h 0.0857 c 0.428,-0.08224 0.8533,-0.08224 1.1931,-0.08224 0.683,0 0.8561,0.16537 0.8561,0.57925 v 0.41565 h -1.0164 c -1.0228,0 -1.45,0.413 -1.45,1.32478 0,0.91089 0.5119,1.4079 1.2806,1.4079 0.5118,0 0.9381,-0.16537 1.3661,-0.33075 l 0.0838,0.16538 c 0,0.08313 0.0856,0.08313 0.1712,0.08313 h 0.7678 c 0.0856,0 0.1703,-0.08844 0.1703,-0.16803 V 3.3933 C 50.9402,2.15077 50.4275,1.736 48.9775,1.736 Z M 46.4183,0.00176875 h -1.0256 c -0.0847,0 -0.1694,0.08312996 -0.1694,0.16537526 v 0.828648 c 0,0.079588 0.0847,0.15918799 0.1703,0.15918799 h 1.0292 c 0.0893,0 0.1731,-0.0849 0.1731,-0.16803199 v -0.821572 C 46.5959,0.08313001 46.5121,0 46.4228,0 Z"
     id="path2"
     inkscape:connector-curvature="0"
     style="clip-rule:evenodd;fill:#d6dae5;fill-rule:evenodd" />
</svg>
