<?xml version="1.0" encoding="UTF-8" standalone="no"?>
<svg
   xmlns:dc="http://purl.org/dc/elements/1.1/"
   xmlns:cc="http://creativecommons.org/ns#"
   xmlns:rdf="http://www.w3.org/1999/02/22-rdf-syntax-ns#"
   xmlns:svg="http://www.w3.org/2000/svg"
   xmlns="http://www.w3.org/2000/svg"
   xmlns:sodipodi="http://sodipodi.sourceforge.net/DTD/sodipodi-0.dtd"
   xmlns:inkscape="http://www.inkscape.org/namespaces/inkscape"
   width="67.00016"
   height="68"
   viewBox="0 0 67.00016 68"
   version="1.1"
   id="svg18"
   sodipodi:docname="counter.svg"
   style="fill:none"
   inkscape:version="0.92.4 (5da689c313, 2019-01-14)">
  <metadata
     id="metadata24">
    <rdf:RDF>
      <cc:Work
         rdf:about="">
        <dc:format>image/svg+xml</dc:format>
        <dc:type
           rdf:resource="http://purl.org/dc/dcmitype/StillImage" />
      </cc:Work>
    </rdf:RDF>
  </metadata>
  <defs
     id="defs22" />
  <sodipodi:namedview
     pagecolor="#ffffff"
     bordercolor="#666666"
     borderopacity="1"
     objecttolerance="10"
     gridtolerance="10"
     guidetolerance="10"
     inkscape:pageopacity="0"
     inkscape:pageshadow="2"
     inkscape:window-width="640"
     inkscape:window-height="480"
     id="namedview20"
     showgrid="false"
     inkscape:zoom="3.4705882"
     inkscape:cx="33.5002"
     inkscape:cy="34"
     inkscape:window-x="0"
     inkscape:window-y="0"
     inkscape:window-maximized="0"
     inkscape:current-layer="svg18" />
  <path
     d="M 2.0002,33.625 C 2.0002,16.159 16.2414,2 33.8087,2 c 3.2378,0 6.3627,0.48098 9.3062,1.375"
     id="path2"
     inkscape:connector-curvature="0"
     style="stroke:#ffffff;stroke-width:4;stroke-linecap:round;stroke-linejoin:round" />
  <path
     d="m 26.963,40.4307 c 3.7808,3.7588 9.9102,3.7588 13.6909,0 C 44.4345,36.6719 60.0849,10.2499 58.702,8.87494 57.319,7.49994 30.7438,23.0602 26.963,26.819 c -3.7805,3.7588 -3.7805,9.8529 0,13.6117 z m 6.8452,-4.0556 c 1.5276,0 2.7662,-1.2312 2.7662,-2.75 0,-1.5188 -1.2386,-2.75 -2.7662,-2.75 -1.5275,0 -2.7658,1.2312 -2.7658,2.75 0,1.5188 1.2383,2.75 2.7658,2.75 z"
     id="path4"
     inkscape:connector-curvature="0"
     style="clip-rule:evenodd;fill:#ffffff;fill-rule:evenodd" />
  <ellipse
     cx="6.14921"
     cy="50.125"
     rx="2.76596"
     ry="2.75"
     id="ellipse6"
     style="fill:#ffffff" />
  <ellipse
     cx="17.2129"
     cy="61.125"
     rx="2.76596"
     ry="2.75"
     id="ellipse8"
     style="fill:#ffffff" />
  <ellipse
     cx="33.808598"
     cy="65.25"
     rx="2.76596"
     ry="2.75"
     id="ellipse10"
     style="fill:#ffffff" />
  <ellipse
     cx="50.404297"
     cy="61.125"
     rx="2.76596"
     ry="2.75"
     id="ellipse12"
     style="fill:#ffffff" />
  <ellipse
     cx="60.085197"
     cy="50.125"
     rx="2.76596"
     ry="2.75"
     id="ellipse14"
     style="fill:#ffffff" />
  <ellipse
     cx="64.2342"
     cy="33.625"
     rx="2.76596"
     ry="2.75"
     id="ellipse16"
     style="fill:#ffffff" />
</svg>
