<?xml version="1.0" encoding="UTF-8" standalone="no"?>
<svg
   xmlns:dc="http://purl.org/dc/elements/1.1/"
   xmlns:cc="http://creativecommons.org/ns#"
   xmlns:rdf="http://www.w3.org/1999/02/22-rdf-syntax-ns#"
   xmlns:svg="http://www.w3.org/2000/svg"
   xmlns="http://www.w3.org/2000/svg"
   xmlns:sodipodi="http://sodipodi.sourceforge.net/DTD/sodipodi-0.dtd"
   xmlns:inkscape="http://www.inkscape.org/namespaces/inkscape"
   width="116.57799"
   height="22.369055"
   viewBox="0 0 116.57799 22.369055"
   version="1.1"
   id="svg4"
   sodipodi:docname="facebook-text.svg"
   style="fill:none"
   inkscape:version="0.92.4 (5da689c313, 2019-01-14)">
  <metadata
     id="metadata10">
    <rdf:RDF>
      <cc:Work
         rdf:about="">
        <dc:format>image/svg+xml</dc:format>
        <dc:type
           rdf:resource="http://purl.org/dc/dcmitype/StillImage" />
      </cc:Work>
    </rdf:RDF>
  </metadata>
  <defs
     id="defs8" />
  <sodipodi:namedview
     pagecolor="#ffffff"
     bordercolor="#666666"
     borderopacity="1"
     objecttolerance="10"
     gridtolerance="10"
     guidetolerance="10"
     inkscape:pageopacity="0"
     inkscape:pageshadow="2"
     inkscape:window-width="640"
     inkscape:window-height="480"
     id="namedview6"
     showgrid="false"
     inkscape:zoom="2.6837607"
     inkscape:cx="58.333984"
     inkscape:cy="11.4065"
     inkscape:window-x="0"
     inkscape:window-y="0"
     inkscape:window-maximized="0"
     inkscape:current-layer="svg4" />
  <path
     d="m 115.14998,19.539055 c 0.795,0 1.428,0.6279 1.428,1.415 0,0.7959 -0.633,1.415 -1.435,1.415 -0.794,0 -1.439,-0.6191 -1.439,-1.415 0,-0.7871 0.645,-1.415 1.439,-1.415 z m -91.939896,2.6407 h -3.9346 l -0.1676,-0.9639 c -1.7978,0.9639 -3.4008,1.1214 -4.4573,1.1214 -2.8871,0 -4.4226,-1.8678 -4.4226,-4.4537 0,-3.0493 1.7923,-4.1388 4.9983,-4.1388 h 3.2605 v -0.658 c 0,-1.5564 -0.1821,-2.0128 -2.6594,-2.0128 h -4.0238 l 0.3953,-3.82042 h 4.4135 c 5.4137,0 6.6013,1.6626 6.6013,5.86512 v 9.0611 z m 58.617,-5.9906 c 0,3.1129 -1.3242,6.1321 -6.8672,6.1321 -5.5484,0 -6.8981,-3.0192 -6.8981,-6.1321 v -3.0069 c 0,-3.1129 1.3479,-6.13212 6.8963,-6.13212 5.5557,0 6.8854,3.01922 6.8854,6.13392 v 3.0068 z m 15.1152,0 c 0,3.1129 -1.3261,6.1321 -6.8672,6.1321 -5.5503,0 -6.9,-3.0192 -6.9,-6.1321 v -3.0069 c 0,-3.1129 1.3479,-6.13212 6.8982,-6.13212 5.5374,0 6.8671,3.01922 6.8671,6.13392 v 3.0068 z m 18.200696,3.5728 c -0.637,0 -1.166,0.5306 -1.166,1.1903 0,0.6722 0.529,1.1992 1.173,1.1992 0.647,0.0177 1.166,-0.5129 1.166,-1.185 0,-0.6544 -0.519,-1.1886 -1.166,-1.1886 h -0.007 z m -108.064486,2.3878 h -4.71778 v -11.0722 H 0 v -3.82048 h 2.358894 v -2.2905 C 2.358894,1.853625 3.688614,0 7.473774,0 h 3.15121 v 3.820445 h -1.96722 c -1.47544,0 -1.5738,0.53062 -1.5738,1.52818 l -0.01822,1.91022 h 3.57024 l -0.419,3.82041 h -3.14942 v 11.0722 z m 107.793486,-0.3715 h -0.259 v -1.5794 c 0.146,-0.0177 0.273,-0.0354 0.474,-0.0354 0.249,0 0.411,0.0478 0.51,0.1167 0.098,0.0708 0.145,0.1769 0.145,0.3272 0,0.207 -0.138,0.3326 -0.309,0.3839 v 0.0123 c 0.138,0.0248 0.236,0.1486 0.273,0.3821 0.036,0.2441 0.073,0.3396 0.098,0.3891 h -0.273 c -0.036,-0.0495 -0.078,-0.1946 -0.109,-0.3997 -0.037,-0.2034 -0.146,-0.2777 -0.35,-0.2777 h -0.182 v 0.6792 z m 0,-0.8755 h 0.187 c 0.213,0 0.394,-0.076 0.394,-0.2706 0,-0.138 -0.102,-0.2759 -0.394,-0.2759 -0.084,0 -0.145,0.0053 -0.187,0.0124 z m -99.924396,-3.0776 c 0,0.8349 0.408,1.2682 1.3042,1.2682 0.9654,0 1.5337,-0.3042 2.2368,-0.619 v -1.6715 h -2.1057 c -0.9982,0 -1.4353,0.1769 -1.4353,1.0206 z m 45.0685,-6.9617 c -0.9655,0 -1.6577,0.3007 -2.3608,0.6191 v 7.0395 c 0.674,0.0619 1.0602,0.0619 1.7013,0.0619 2.3134,0 2.6267,-1.0258 2.6267,-2.4585 v -3.3677 c 0,-1.0541 -0.3643,-1.9049 -1.9672,-1.9049 z m 14.9275,0 c -1.6066,0 -2.1622,0.849 -2.1622,1.8926 v 3.8558 c 0,1.0612 0.5556,1.9102 2.1622,1.9102 1.6029,0 2.1603,-0.849 2.1603,-1.9102 v -3.8558 c 0,-1.0542 -0.5647,-1.9049 -2.1676,-1.9049 z m -38.3562,0.4776 c -2.4481,-0.4068 -3.1512,-0.4952 -4.3279,-0.4952 -2.1167,0 -2.756,0.4474 -2.756,2.1932 v 3.2898 c 0,1.7422 0.6375,2.1932 2.756,2.1932 1.1785,0 1.8798,-0.0884 4.3279,-0.4952 v 3.7214 c -2.1439,0.4687 -3.541,0.5907 -4.7214,0.5907 -5.0675,0 -7.0821,-2.5823 -7.0821,-6.3143 v -2.6708 c 0,-3.7391 2.0146,-6.32671 7.0821,-6.32671 1.1804,0 2.5775,0.12381 4.7214,0.59252 z m 14.7727,4.6871 h -8.6559 v 0.3007 c 0,1.7422 0.6375,2.1932 2.7541,2.1932 1.9035,0 3.0602,-0.0884 5.5047,-0.4952 v 3.7214 c -2.3552,0.4687 -3.583,0.5907 -5.8963,0.5907 -5.0639,0 -7.0676,-2.5823 -7.0676,-6.3143 v -3.0599 c 0,-3.2668 1.4937,-5.94292 6.6851,-5.94292 5.2005,0 6.685,2.64422 6.685,5.94292 v 3.0599 z m 38.6967,-5.1647 c -1.6029,0 -2.1585,0.849 -2.1585,1.8979 v 3.8611 c 0,1.0612 0.5556,1.9102 2.1585,1.9102 1.603,0 2.1677,-0.849 2.1677,-1.9102 v -3.8629 c 0,-1.0559 -0.5647,-1.9067 -2.1677,-1.9067 z m 22.399196,11.2845 h -5.113 l -4.328,-7.0041 v 7.0041 H 98.297484 V 1.140825 l 4.717496,-0.760549 v 13.521879 l 4.326,-6.65039 h 5.101 l -4.727,7.25179 4.723,7.6409 z m -67.784596,-11.6736 c -1.6029,0 -1.9672,0.849 -1.9672,1.9102 v 0.589 h 3.9345 v -0.5943 c 0,-1.0435 -0.3643,-1.8996 -1.9673,-1.8996 z m 22.0333,5.6246 c 0,3.6082 -1.0747,6.2436 -7.5229,6.2436 -2.3243,0 -3.6905,-0.2017 -6.2588,-0.5837 V 1.137285 l 4.7178,-0.760547 v 7.211087 c 1.02,-0.36789 2.3406,-0.55361 3.5429,-0.55361 4.7177,0 5.501,2.05172 5.501,5.34684 v 3.732 z"
     id="path2"
     inkscape:connector-curvature="0"
     style="clip-rule:evenodd;fill:#d6dae5;fill-rule:evenodd" />
</svg>
