<?xml version="1.0" encoding="UTF-8" standalone="no"?>
<svg
   xmlns:dc="http://purl.org/dc/elements/1.1/"
   xmlns:cc="http://creativecommons.org/ns#"
   xmlns:rdf="http://www.w3.org/1999/02/22-rdf-syntax-ns#"
   xmlns:svg="http://www.w3.org/2000/svg"
   xmlns="http://www.w3.org/2000/svg"
   xmlns:sodipodi="http://sodipodi.sourceforge.net/DTD/sodipodi-0.dtd"
   xmlns:inkscape="http://www.inkscape.org/namespaces/inkscape"
   height="288.04648pt"
   viewBox="0 -87 463.83722 288.04648"
   width="463.00296pt"
   version="1.1"
   id="svg4"
   sodipodi:docname="logo.svg"
   inkscape:version="0.92.4 (5da689c313, 2019-01-14)">
  <metadata
     id="metadata10">
    <rdf:RDF>
      <cc:Work
         rdf:about="">
        <dc:format>image/svg+xml</dc:format>
        <dc:type
           rdf:resource="http://purl.org/dc/dcmitype/StillImage" />
      </cc:Work>
    </rdf:RDF>
  </metadata>
  <defs
     id="defs8" />
  <sodipodi:namedview
     pagecolor="#ffffff"
     bordercolor="#666666"
     borderopacity="1"
     objecttolerance="10"
     gridtolerance="10"
     guidetolerance="10"
     inkscape:pageopacity="0"
     inkscape:pageshadow="2"
     inkscape:window-width="640"
     inkscape:window-height="480"
     id="namedview6"
     showgrid="false"
     inkscape:zoom="0.38228942"
     inkscape:cx="308.6684"
     inkscape:cy="192.26293"
     inkscape:window-x="0"
     inkscape:window-y="0"
     inkscape:window-maximized="0"
     inkscape:current-layer="svg4" />
  <path
     d="m 375.83724,25.148367 c -5.85157,0 -11.69141,0.58203 -17.42578,1.74219 -4.32422,-21.5820324 -18.30469,-39.992189 -37.9336,-49.957032 -19.625,-9.964844 -42.73828,-10.382813 -62.71484,-1.136719 C 239.68489,-74.000069 184.66146,-99.711007 134.86458,-81.632882 85.067705,-63.554757 59.356768,-8.5274134 77.434893,41.265557 33.813799,42.644457 -0.64323202,78.749927 0.00911148,122.38665 0.66536098,166.02728 36.192705,201.07806 79.837237,201.14837 H 375.83724 c 48.59765,0 88,-39.39844 88,-88 0,-48.601563 -39.40235,-88.000003 -88,-88.000003 z m 0,0"
     id="path2"
     inkscape:connector-curvature="0"
     style="fill:#a3d4f7" />
</svg>
