<?xml version="1.0" encoding="utf-8"?><svg xmlns="http://www.w3.org/2000/svg" xmlns:xlink="http://www.w3.org/1999/xlink"><symbol viewBox="0 0 116.578 24.285" id="apple-watch" xmlns="http://www.w3.org/2000/svg"><path d="M15.13 5.867c-2.06-.148-3.807 1.117-4.78 1.117-.99 0-2.514-1.085-4.13-1.057-2.123.032-4.08 1.2-5.174 3.046-2.205 3.717-.562 9.223 1.585 12.237 1.05 1.475 2.303 3.134 3.948 3.074 1.585-.061 2.183-.997 4.098-.997 1.913 0 2.453.997 4.128.965 1.704-.03 2.785-1.502 3.827-2.985 1.207-1.71 1.704-3.364 1.733-3.454-.039-.013-3.324-1.24-3.356-4.914-.03-3.071 2.582-4.549 2.702-4.62-1.484-2.12-3.774-2.354-4.581-2.412zm82.296 11.997v.326c0 3.207-2.416 6.077-7.265 6.077-4.836 0-7.71-2.948-7.71-8.1v-2.15c0-5.1 2.888-8.139 7.722-8.139 4.54 0 7.253 2.779 7.253 6.248v.182h-3.64c0-1.76-1.155-3.326-3.586-3.326-2.592 0-3.896 1.683-3.896 5.034v2.152c0 3.39 1.291 4.97 3.922 4.97 2.62 0 3.56-1.436 3.56-3.274zm-66.2 1.017h.053l3.265-12.715h3.854l3.277 12.715h.054l3.036-12.715h4.056l-5.09 17.802h-3.856l-3.37-12.169h-.068l-3.372 12.169h-3.827L24.134 6.166h4.057zm74.043-5.569h7.494V6.166h3.815v17.802h-3.815v-7.59h-7.494v7.59h-3.8V6.166h3.8zM79.993 6.166v3.077h-5.466v14.725H70.74V9.243h-5.452V6.166zm-20.536 0l5.896 17.801h-4.07l-1.307-4.486h-5.799l-1.328 4.486h-3.8l5.91-17.801zm-.276 10.577l-2.06-7.069h-.04l-2.093 7.069zM13.775 3.972c-.88.98-2.265 1.725-3.625 1.623-.193-1.393.518-2.847 1.326-3.756C12.38.814 13.901.048 15.16 0c.162 1.42-.428 2.851-1.302 3.875l-.04.049z" clip-rule="evenodd" fill-rule="evenodd"/></symbol><symbol viewBox="0 0 451.846 257.565" id="arrow" xmlns="http://www.w3.org/2000/svg"><path d="M225.922 257.566c-8.098 0-16.195-3.092-22.369-9.263L9.27 54.017c-12.36-12.36-12.36-32.397 0-44.751 12.354-12.354 32.388-12.354 44.748 0L225.922 181.18 397.828 9.27c12.36-12.353 32.391-12.353 44.744 0 12.365 12.355 12.365 32.393 0 44.752l-194.28 194.286c-6.178 6.172-14.275 9.257-22.37 9.257z"/></symbol><symbol viewBox="0 0 116.573 24.073" id="atlassian" xmlns="http://www.w3.org/2000/svg"><path d="M81.923 15.748c-1.694-.425-1.694-.442-1.694-1.344 0-.608.062-.898 1.457-.898.958 0 2.368.16 3.275.313a.462.462 0 00.354-.088.44.44 0 00.182-.31l.259-2.02a.464.464 0 00-.365-.496c-1.056-.235-2.513-.39-3.716-.39-4.207 0-5.064 1.54-5.064 3.851 0 2.541.483 3.396 3.702 4.157 2.12.495 2.12.862 2.12 1.472 0 .802-.073 1.08-1.457 1.08-1.119 0-2.412-.169-3.549-.464a.462.462 0 00-.576.354l-.347 1.928a.446.446 0 00.31.507c1.242.39 3.023.655 4.331.655 4.07 0 4.9-1.663 4.9-4.14 0-2.74-.499-3.254-4.127-4.186l.005.018zm-10.552 0c-1.694-.425-1.694-.442-1.694-1.344 0-.608.062-.898 1.457-.898.956 0 2.368.16 3.275.313a.462.462 0 00.354-.088.44.44 0 00.182-.31l.258-2.02a.452.452 0 00-.355-.496c-1.038-.235-2.495-.39-3.698-.39-4.196 0-5.063 1.54-5.063 3.851 0 2.541.491 3.396 3.708 4.157 2.12.495 2.12.862 2.12 1.472 0 .802-.072 1.08-1.457 1.08-1.12 0-2.413-.169-3.552-.464a.462.462 0 00-.576.354l-.364 1.919a.451.451 0 00.316.507c1.238.39 3.02.655 4.33.655 4.061 0 4.9-1.663 4.9-4.139 0-2.742-.507-3.254-4.136-4.187l-.005.018zM34.02 6.457a.458.458 0 00-.442-.315h-4.314c-.2 0-.382.126-.443.312L23.38 23.203a.441.441 0 00.069.398.469.469 0 00.373.183h2.97a.465.465 0 00.444-.318l3.75-12.328s.1-.31.437-.31c.346 0 .437.319.437.319l1.74 5.845h-2.332c-.2 0-.383.135-.437.327l-.674 2.317a.486.486 0 00.073.39.497.497 0 00.382.176h3.98l1.048 3.266a.456.456 0 00.437.313h2.969c.146 0 .288-.07.375-.185a.433.433 0 00.073-.402l-5.45-16.767-.017.028zm56.74 4.328h-2.73c-.255 0-.461.2-.461.448v12.134a.46.46 0 00.463.452h2.732c.255 0 .462-.2.462-.45V11.237c0-.248-.2-.445-.456-.445l-.009-.007zm-38.744-4.97h-2.732c-.255 0-.461.2-.461.448v17.104a.46.46 0 00.463.452h2.732c.255 0 .46-.2.46-.45V6.266c0-.247-.2-.444-.455-.444l-.007-.007zm61.423 4.709c-1.444 0-3.416.485-5.082 1.245l-.201-.654a.452.452 0 00-.442-.323h-2.021c-.255 0-.465.2-.465.448v12.134c0 .247.2.45.455.45h2.733c.255 0 .464-.2.464-.45v-8.402c.984-.486 2.368-.99 3.19-.99.616 0 .844.224.844.822v8.56c0 .252.21.452.465.452h2.732c.255 0 .46-.2.46-.451v-8.908c0-2.605-1.056-3.927-3.134-3.927h-.002zM10.167 17.738a.477.477 0 00-.355-.146.502.502 0 00-.412.226c-1.275 1.893-1.93 3.679-2.022 5.474a.514.514 0 00.142.363c.09.106.227.16.364.16h3.027a.492.492 0 00.501-.443c.073-.867.346-1.733.856-2.635a.67.67 0 00-.063-.737c-.501-.637-1.114-1.309-2.025-2.234l-.004-.018zm50.709 1.29v1.563a4.783 4.783 0 01-2.259.584c-.847 0-1.11-.247-1.11-1.079 0-.796.163-1.047 1.165-1.047h2.204v-.02zm38.817 0v1.563a4.845 4.845 0 01-2.259.584c-.847 0-1.11-.247-1.11-1.079 0-.796.163-1.047 1.165-1.047h2.204v-.02zm-52.724 2.198a.443.443 0 00-.2-.31.467.467 0 00-.367-.061c-.492.117-.947.18-1.311.18-.674 0-.984-.283-.984-.92v-6.429h2.65a.458.458 0 00.463-.45v-2.008a.46.46 0 00-.464-.451h-2.642V7.69a.446.446 0 00-.164-.34.469.469 0 00-.364-.106l-2.732.371a.452.452 0 00-.401.442v2.724h-1.491c-.255 0-.463.2-.463.449v2.016a.47.47 0 00.474.453h1.486v6.836c0 2.35 1.27 3.537 3.776 3.537.71 0 1.924-.159 2.715-.424a.448.448 0 00.304-.496l-.296-1.919.009-.013zM59.045 10.53c-1.385 0-3.068.212-4.29.54a.451.451 0 00-.346.504l.315 1.928a.454.454 0 00.191.294c.102.07.23.088.353.07 1.135-.211 2.308-.335 3.301-.335 1.967 0 2.284.407 2.284 1.698v1.132H57.94c-2.794 0-3.99 1.114-3.99 3.75 0 2.51 1.312 3.944 3.59 3.944a7.47 7.47 0 003.757-1.009l.118.413a.457.457 0 00.447.327h2.218a.457.457 0 00.461-.451v-8.066c0-3.466-1.484-4.757-5.483-4.757l-.016.008zm38.81 0c-1.384 0-3.06.212-4.28.54a.446.446 0 00-.333.504l.319 1.928a.454.454 0 00.191.294.5.5 0 00.355.07c1.13-.211 2.295-.335 3.297-.335 1.968 0 2.278.407 2.278 1.698v1.132h-2.915c-2.805 0-4 1.114-4 3.75 0 2.51 1.308 3.944 3.588 3.944a7.453 7.453 0 003.753-1.009l.118.413a.458.458 0 00.446.327h2.205a.46.46 0 00.464-.451v-8.066c0-3.466-1.485-4.757-5.483-4.757l.004.008zM22.45 5.896a.512.512 0 00-.486-.068 25.5 25.5 0 01-3.187.932c-.2.053-.38.195-.437.371-.73 1.946-2.605 3.803-4.554 5.731-.073.07-.182.177-.365.177a.48.48 0 01-.364-.164c-1.967-1.937-3.825-3.777-4.554-5.722a.653.653 0 00-.437-.372 26.173 26.173 0 01-3.188-.937.63.63 0 00-.182-.027.518.518 0 00-.304.1.466.466 0 00-.193.425c.164 1.615.829 3.192 2.013 4.846 1.12 1.557 2.568 2.998 3.98 4.39 2.586 2.565 5.036 4.988 5.253 7.8a.493.493 0 00.496.448h3.042c.136 0 .27-.053.364-.15a.47.47 0 00.136-.36c-.096-1.877-.825-3.758-2.227-5.75a18.766 18.766 0 00-.932-1.221.343.343 0 01.026-.462l.31-.304c1.408-1.389 2.859-2.83 3.98-4.387 1.183-1.649 1.839-3.219 2.007-4.833a.489.489 0 00-.193-.436l.01-.013zm-9.017 1.45c.954 0 1.508-.059 1.7-.059.22 0 .456.177.456.442 0 .071-.018.124-.036.177-.128.326-.71 1.507-1.786 2.52a.504.504 0 01-.346.135.524.524 0 01-.358-.134c-1.075-1.014-1.65-2.194-1.776-2.524a.502.502 0 01-.037-.186c0-.257.224-.451.46-.451.194 0 .746.053 1.7.053h.004l.018.018zM90.76 5.82h-2.725a.45.45 0 00-.462.442v2.335c0 .248.207.45.462.45h2.733a.45.45 0 00.461-.443V6.25a.454.454 0 00-.461-.447l-.008.021zM26.74.25a.636.636 0 00-.51-.247.587.587 0 00-.291.07c-3.734 1.981-8.057 3.03-12.51 3.032-4.45 0-8.774-1.05-12.504-3.033A.568.568 0 00.632 0c-.2 0-.391.088-.51.248a.586.586 0 00.119.83A22.648 22.648 0 006.36 4.21a22.749 22.749 0 007.068 1.132c2.417 0 4.794-.39 7.067-1.132a22.707 22.707 0 006.126-3.131.61.61 0 00.118-.85v.02z" clip-rule="evenodd" fill-rule="evenodd"/></symbol><symbol viewBox="0 0 116.579 28.941" id="audi" xmlns="http://www.w3.org/2000/svg"><path d="M105.422 17.637c0-2.304-.97-4.97-3.987-8.687L94.157 0H84.026l5.768 6.279c.971 1.047 2.21 1.988 2.21 1.988-1.403-.784-3.18-1.098-4.582-1.098-3.34 0-6.736.68-9.754 2.303-3.234 1.726-5.392 4.604-5.392 8.426 0 2.93 1.35 5.18 3.074 6.907 3.88 3.77 10.94 4.135 13.528 4.135 3.827 0 9.811-.838 13.205-3.82 1.996-1.78 3.343-4.24 3.343-7.482zm11.157-9.892h-8.785V28.26h8.785zM44.357 28.26L24.953 0H14.067l3.008 3.453L0 28.26h9.809l2.926-4.657h18.502l2.987 4.655h10.133zm25.708-8.583V7.745h-8.513v9.159c0 2.617-.11 3.348-.27 4.028-.593 1.884-2.642 2.72-4.746 2.72-2.91 0-4.258-1.099-4.795-2.826-.164-.575-.216-1.201-.27-1.83-.054-.68 0-1.413 0-2.198V7.745h-8.623v11.983c0 2.671.915 4.658 2.425 6.02 2.586 2.459 6.952 3.193 10.995 3.193 4.906 0 8.68-.681 11.374-3.246 1.403-1.309 2.426-3.035 2.426-6.018zm26.95-1.78c0 2.145-1.455 3.768-3.288 4.658-1.508.785-3.288.994-4.851.994-1.563 0-3.396-.312-4.905-1.046-1.832-.89-3.233-2.616-3.233-4.502 0-2.249 1.778-4.028 3.88-4.919 1.293-.576 2.857-.785 4.095-.785 1.186 0 2.912.157 4.258.681 2.427.995 4.044 2.878 4.044 4.92zm-69.198.19H16.09l5.843-9.361 5.884 9.362z" clip-rule="evenodd" fill-rule="evenodd"/></symbol><symbol viewBox="0 0 116.586 29" id="bitbucket" xmlns="http://www.w3.org/2000/svg"><path d="M14.932 23.2c-.17 0-.255.083-.255.083s-2.134 1.663-5.975 1.663c-3.838 0-5.97-1.663-5.97-1.663s-.17-.083-.255-.083c-.17 0-.342.084-.342.332v.082c.341 1.74.597 2.983.597 3.149C2.987 28.006 5.548 29 8.62 29s5.632-.994 5.888-2.237c0-.166.255-1.408.592-3.149v-.082c.082-.166 0-.332-.173-.332zm17.321-4.059c1.11-.58 1.537-1.409 1.537-2.653v-1.74c0-2.485-1.537-3.726-4.78-3.726h-6.484c-.255 0-.426.166-.426.415v16.237c0 .25.17.416.426.416h6.997c3.072 0 4.863-1.492 4.863-4.06v-1.74c0-1.49-.768-2.65-2.133-3.149zm6.656-3.646h-2.641c-.255 0-.428.166-.428.416v11.763c0 .248.173.416.428.416h2.65c.255 0 .428-.168.428-.416V15.91c0-.248-.173-.416-.428-.416zm63.572-.248c-3.58 0-5.374 1.74-5.374 4.97v3.232c0 3.314 1.794 4.889 5.547 4.889 1.539 0 3.16-.248 4.526-.747.171-.082.341-.247.255-.497l-.426-1.822c0-.084-.085-.249-.17-.249-.086-.083-.255-.083-.342-.083a13.192 13.192 0 01-3.497.498c-1.963 0-2.304-.58-2.304-1.906v-.416h6.57c.255 0 .428-.164.428-.413v-2.32c-.086-3.48-1.707-5.138-5.205-5.138zM55.64 25.355c-.683 0-1.193 0-1.703-.084v-6.385c.768-.336 1.792-.663 2.559-.663 1.024 0 1.452.416 1.452 1.327v3.723c0 1.409-.342 2.072-2.305 2.072zm60.666.248c0-.083-.082-.248-.167-.332-.085-.088-.255-.088-.341-.088-.512.08-.938.168-1.28.168-.683 0-.938-.248-.938-.91v-6.218h2.559c.255 0 .425-.168.425-.416v-1.9c0-.249-.17-.417-.425-.417h-2.56v-2.98c0-.168-.087-.252-.173-.334-.085-.083-.255-.083-.341-.083l-2.644.336c-.255 0-.428.247-.428.413v2.651h-1.448c-.255 0-.429.166-.429.416v1.904c0 .247.174.415.429.415h1.448v6.626c0 2.237 1.196 3.396 3.67 3.396.683 0 1.876-.164 2.645-.416.171-.08.342-.247.255-.495l-.255-1.739zm-67.49 0c0-.083-.084-.248-.17-.332-.085-.088-.255-.088-.34-.088-.429.08-.939.168-1.28.168-.683 0-.938-.248-.938-.91v-6.218h2.559c.255 0 .428-.168.428-.416v-1.9c0-.249-.173-.417-.428-.417h-2.562v-2.98c0-.168-.086-.252-.171-.334-.086-.083-.255-.083-.342-.083l-2.643.336c-.255 0-.425.247-.425.413v2.651h-1.456c-.255 0-.428.166-.428.416v1.904c0 .247.172.415.428.415h1.45v6.626c0 2.237 1.193 3.396 3.668 3.396.683 0 1.876-.164 2.641-.416.173-.08.342-.247.255-.495l-.255-1.739zm35.411-.165c0-.083-.086-.25-.17-.332-.085-.083-.255-.083-.34-.083a10.95 10.95 0 01-2.305.248c-1.706 0-2.133-.413-2.133-1.822v-3.396c0-1.41.512-1.824 2.133-1.824.428 0 1.366.083 2.304.248.085 0 .255 0 .34-.082.085-.083.17-.166.17-.332l.344-1.988c0-.248-.087-.414-.343-.497-1.023-.332-2.218-.416-2.9-.416-4.01 0-5.633 1.41-5.633 4.89v3.314c0 3.48 1.621 4.888 5.63 4.888.938 0 2.048-.165 2.901-.415.255-.082.342-.248.342-.495l-.343-1.906zm-58.535-.332h3.158c1.367 0 1.877-.332 1.877-1.409V22.45c0-1.078-.425-1.494-1.622-1.494h-1.11c-.256 0-.429-.168-.429-.416v-2.06c0-.249.173-.415.428-.415h.598c1.11 0 1.535-.414 1.535-1.408v-1.493c0-.58-.165-1.16-1.53-1.16h-2.913v11.102zm47.952-9.611h-2.641c-.255 0-.428.166-.428.416v8.118c-.938.497-2.305.994-3.07.994-.598 0-.856-.248-.856-.829v-8.278c0-.248-.173-.416-.428-.416h-2.65c-.254 0-.426.168-.426.416v8.616c0 2.485 1.022 3.812 3.07 3.812 1.366 0 3.328-.498 4.949-1.244l.17.664c.089.166.26.332.428.332h1.965c.255 0 .426-.168.426-.416V15.91c-.086-.168-.255-.416-.512-.416zM8.706 9.53C3.926 9.53 0 10.77 0 12.346c0 .415 1.024 6.296 1.45 8.617.171 1.076 2.988 2.568 7.253 2.568 4.266 0 6.997-1.486 7.253-2.564.419-2.318 1.448-8.199 1.448-8.614-.091-1.574-3.925-2.816-8.707-2.816zm0 12.095c-1.535 0-2.73-1.16-2.73-2.651 0-1.495 1.194-2.653 2.73-2.653 1.535 0 2.73 1.158 2.73 2.653 0 1.406-1.195 2.644-2.73 2.644zm87.887 5.717l-3.499-5.634 3.416-5.545c.084-.168.084-.329 0-.415a.48.48 0 00-.428-.248H93.18a.48.48 0 00-.428.248l-3.243 5.473V11.105c0-.25-.173-.416-.428-.416h-2.645c-.255 0-.428.167-.428.416v16.484c0 .248.173.416.428.416h2.644c.255 0 .428-.168.428-.416v-5.385l3.41 5.633c.086.168.255.25.342.25h2.9c.255 0 .428-.166.428-.415.084-.165.084-.248 0-.331zm4.011-7.04v-.416c0-1.238.596-1.733 1.876-1.733 1.451 0 1.707.663 1.707 1.742v.416h-3.583zM8.707 17.57c.752 0 1.366.6 1.366 1.326 0 .734-.614 1.327-1.366 1.327-.752 0-1.366-.593-1.366-1.327 0-.727.612-1.326 1.366-1.326zm48.72-2.317c-1.279 0-2.644.334-3.497.663v-4.723c0-.247-.17-.415-.428-.415h-2.645c-.255 0-.428.168-.428.415v16.405c0 .248.173.416.342.416 1.621.248 3.584.416 4.693.416 4.95 0 5.973-2.072 5.973-5.139v-3.563c0-2.98-1.366-4.475-4.01-4.475zm-21.16-1.495c-.255 0-.428-.166-.428-.416v-2.237c0-.25.173-.416.428-.416h2.646c.256 0 .428.25.428.416v2.236c0 .247-.172.415-.428.415h-2.646zm-27.562-.584c-3.073 0-5.546-.495-5.546-1.158 0-.663 2.473-1.16 5.546-1.16 3.071 0 5.547.497 5.547 1.158 0 .663-2.476 1.161-5.547 1.161zM42.92 6.63c-.426 0-1.11-.166-1.45-.416-.083 0-.083-.081-.083-.164l.17-.663.083-.083h.17c.428.089.852.168 1.279.168.519 0 .519-.159.519-.415 0-.16 0-.327-.77-.495-1.193-.248-1.366-.575-1.366-1.486 0-.828.257-1.406 1.794-1.406.425 0 1.023.08 1.366.164 0 0 .082.083.082.166l-.084.742-.085.084h-.171a5.82 5.82 0 01-.52-.033l-.16-.016a5.82 5.82 0 00-.518-.035c-.512 0-.512.082-.512.33 0 .336 0 .336.597.5 1.28.333 1.449.582 1.449 1.575 0 .906-.337 1.484-1.758 1.493h-.033zm-3.757 0c-.51 0-1.108-.166-1.706-.416-.085 0-.085-.081-.085-.164l.17-.663.092-.083h.173c.425.089.852.168 1.279.168.51 0 .51-.159.51-.415 0-.16 0-.327-.767-.495-1.193-.248-1.366-.575-1.366-1.486 0-.828.257-1.406 1.794-1.406.426 0 1.024.08 1.366.164.084 0 .17.083.17.166l-.084.746-.084.082h-.091c-.149 0-.33-.018-.517-.035l-.16-.015a5.792 5.792 0 00-.52-.032c-.518 0-.518.08-.518.327 0 .334 0 .334.6.499 1.279.333 1.45.582 1.535 1.574 0 .907-.337 1.486-1.758 1.495h-.033zM54.61 1.741c-.513 0-1.196.167-1.878.416l-.086-.25c0-.083-.085-.083-.17-.083h-.768c-.086 0-.171.084-.171.166v4.392c0 .082.085.165.171.165h1.024c.085 0 .17-.083.17-.165V3.314c.342-.166.853-.331 1.195-.331.255 0 .341.082.341.33v3.07c0 .08.085.164.17.164h1.02c.083 0 .174-.083.174-.165V3.146c-.091-.994-.428-1.41-1.193-1.41zm-8.193.083h-1.024c-.085 0-.17.084-.17.166v4.392c0 .082.085.165.17.165h1.03c.09 0 .173-.083.173-.165V1.987c0-.082-.084-.165-.173-.165zM32.423.003H31.4c-.085 0-.17.082-.17.164v6.215c0 .082.081.165.163.165h1.03c.081 0 .167-.083.167-.165V.165c0-.082-.086-.165-.17-.165zM25.94.25c0-.083-.085-.083-.17-.083h-1.536c-.086 0-.171.083-.171.083L22.094 6.3v.164c0 .083.082.083.167.083h1.111c.084 0 .169-.083.169-.083l1.366-4.475s0-.081.17-.081c.084 0 .17.082.17.082l.598 2.072h-.854c-.088 0-.173.082-.173.082l-.256.823v.162s.085.083.17.083h1.449l.342 1.16c0 .082.086.082.172.082h1.11c.086 0 .086 0 .174-.084v-.168L25.939.249zm8.789 5.303c.428 0 .683-.083.853-.165v-.664h-.853c-.342 0-.427.166-.427.414 0 .33.084.413.42.416h.007zm-4.096 0c0-.083 0-.083-.085-.083h-.171c-.17.083-.342.083-.512.083-.255 0-.341-.083-.341-.332V2.818h.938c.086 0 .17-.082.17-.165V1.99c0-.082-.084-.166-.17-.166h-.938V.664c0-.082 0-.082-.085-.082 0 0-.086-.08-.171 0L28.243.75c-.086 0-.17.088-.17.168v.99h-.512c-.082 0-.164.087-.164.168v.748c0 .084.087.168.173.168h.513v2.485c0 .828.426 1.242 1.366 1.242.255 0 .681-.084.938-.168.34-.165.34-.165.34-.247l-.085-.747zm18.174 0c.428 0 .683-.083.854-.165v-.664h-.854c-.34 0-.426.166-.426.414 0 .33.084.413.419.416h.007zM34.983 1.74a8.67 8.67 0 00-1.535.167c-.086 0-.17.082-.086.165l.091.663c0 .082 0 .082.09.082h.084c.428-.082.854-.082 1.193-.082.684 0 .855.166.855.58v.415h-1.03c-1.024 0-1.45.413-1.45 1.325 0 .91.512 1.408 1.28 1.408.51 0 .938-.166 1.364-.331v.165c0 .084.085.084.17.084h.769c.082 0 .173-.089.173-.168v-2.82c0-1.243-.51-1.658-1.96-1.658zm13.995 0c-.512 0-1.11.083-1.537.167-.091 0-.173.082-.091.165l.082.663c0 .082 0 .082.085.082h.085c.428-.082.854-.082 1.193-.082.683 0 .856.166.856.58v.415h-1.016c-1.023 0-1.45.413-1.45 1.325 0 .91.512 1.408 1.28 1.408.512 0 .939-.166 1.367-.331l.084.165c0 .084.085.084.17.084h.769c.085 0 .17-.089.17-.168v-2.82c-.085-1.243-.597-1.658-2.047-1.658zM46.418 0h-1.025c-.085 0-.17.084-.17.166v.829c0 .08.085.159.17.159h1.03c.09 0 .173-.085.173-.168V.165c0-.082-.084-.165-.173-.165z" clip-rule="evenodd" fill-rule="evenodd"/></symbol><symbol viewBox="0 0 22 20" id="chats" xmlns="http://www.w3.org/2000/svg"><path d="M2 2v11.5h2.281L5.5 17 9 13.5h10.754V2H2z"/></symbol><symbol viewBox="0 0 67 68" id="counter" xmlns="http://www.w3.org/2000/svg"><path d="M2 33.625C2 16.159 16.241 2 33.81 2c3.238 0 6.362.481 9.306 1.375"/><path d="M26.963 40.43c3.78 3.76 9.91 3.76 13.69 0 3.782-3.758 19.432-30.18 18.049-31.555C57.319 7.5 30.744 23.06 26.963 26.819a9.586 9.586 0 000 13.612zm6.845-4.055a2.758 2.758 0 002.766-2.75 2.758 2.758 0 00-2.766-2.75 2.758 2.758 0 00-2.766 2.75 2.758 2.758 0 002.766 2.75z" clip-rule="evenodd" fill-rule="evenodd"/><ellipse cx="6.149" cy="50.125" rx="2.766" ry="2.75"/><ellipse cx="17.213" cy="61.125" rx="2.766" ry="2.75"/><ellipse cx="33.809" cy="65.25" rx="2.766" ry="2.75"/><ellipse cx="50.404" cy="61.125" rx="2.766" ry="2.75"/><ellipse cx="60.085" cy="50.125" rx="2.766" ry="2.75"/><ellipse cx="64.234" cy="33.625" rx="2.766" ry="2.75"/></symbol><symbol viewBox="0 0 67 68" id="customers" xmlns="http://www.w3.org/2000/svg"><path d="M2 33.625C2 16.159 16.241 2 33.809 2c3.237 0 6.362.481 9.306 1.375"/><path fill-rule="evenodd" clip-rule="evenodd" d="M26.963 40.43c3.78 3.76 9.91 3.76 13.69 0 3.781-3.758 19.432-30.18 18.049-31.555C57.319 7.5 30.744 23.06 26.962 26.819a9.586 9.586 0 000 13.612zm6.845-4.055a2.758 2.758 0 002.766-2.75 2.758 2.758 0 00-2.766-2.75 2.758 2.758 0 00-2.766 2.75 2.758 2.758 0 002.766 2.75z"/><ellipse cx="6.149" cy="50.125" rx="2.766" ry="2.75"/><ellipse cx="17.213" cy="61.125" rx="2.766" ry="2.75"/><ellipse cx="33.808" cy="65.25" rx="2.766" ry="2.75"/><ellipse cx="50.404" cy="61.125" rx="2.766" ry="2.75"/><ellipse cx="60.085" cy="50.125" rx="2.766" ry="2.75"/><ellipse cx="64.234" cy="33.625" rx="2.766" ry="2.75"/></symbol><symbol viewBox="0 0 8.714 17" id="facebook" xmlns="http://www.w3.org/2000/svg"><path d="M5.656 17V9.245h2.569l.385-3.022H5.656V4.294c0-.875.24-1.471 1.478-1.471h1.58V.118A21.19 21.19 0 006.412 0C4.135 0 2.576 1.408 2.576 3.995v2.228H0v3.022h2.576V17z"/></symbol><symbol viewBox="0 0 116.578 22.369" id="facebook-text" xmlns="http://www.w3.org/2000/svg"><path d="M115.15 19.54c.795 0 1.428.627 1.428 1.414 0 .796-.633 1.415-1.435 1.415-.794 0-1.439-.619-1.439-1.415 0-.787.645-1.415 1.439-1.415zm-91.94 2.64h-3.935l-.167-.964a9.262 9.262 0 01-4.457 1.121c-2.888 0-4.423-1.868-4.423-4.453 0-3.05 1.792-4.14 4.998-4.14h3.26v-.657c0-1.557-.181-2.013-2.659-2.013h-4.023l.395-3.82h4.413c5.414 0 6.602 1.662 6.602 5.865v9.06zm58.617-5.99c0 3.112-1.324 6.131-6.867 6.131-5.549 0-6.898-3.019-6.898-6.132v-3.007c0-3.113 1.348-6.132 6.896-6.132 5.556 0 6.885 3.02 6.885 6.134v3.007zm15.115 0c0 3.112-1.326 6.131-6.867 6.131-5.55 0-6.9-3.019-6.9-6.132v-3.007c0-3.113 1.348-6.132 6.898-6.132 5.538 0 6.867 3.02 6.867 6.134v3.007zm18.201 3.572a1.18 1.18 0 00-1.166 1.19c0 .672.529 1.2 1.173 1.2.647.017 1.166-.513 1.166-1.186 0-.654-.519-1.188-1.166-1.188h-.007zM7.078 22.15H2.361V11.078H0v-3.82h2.359V4.966C2.359 1.854 3.689 0 7.474 0h3.151v3.82H8.658c-1.476 0-1.574.531-1.574 1.529l-.018 1.91h3.57l-.419 3.82h-3.15v11.072zm107.794-.372h-.259v-1.58c.146-.017.273-.035.474-.035.249 0 .411.048.51.117.098.071.145.177.145.327 0 .207-.138.333-.309.384v.013c.138.024.236.148.273.382.036.244.073.34.098.389h-.273c-.036-.05-.078-.195-.109-.4-.037-.203-.146-.278-.35-.278h-.182v.68zm0-.875h.187c.213 0 .394-.076.394-.27 0-.139-.102-.277-.394-.277-.084 0-.145.006-.187.013zm-99.924-3.078c0 .835.408 1.268 1.304 1.268.965 0 1.533-.304 2.237-.619v-1.671h-2.106c-.998 0-1.435.177-1.435 1.02zm45.068-6.962c-.965 0-1.658.301-2.36.62v7.04c.673.061 1.06.061 1.7.061 2.314 0 2.627-1.026 2.627-2.459v-3.367c0-1.054-.364-1.905-1.967-1.905zm14.928 0c-1.607 0-2.163.85-2.163 1.893v3.856c0 1.061.556 1.91 2.163 1.91 1.602 0 2.16-.849 2.16-1.91v-3.856c0-1.054-.565-1.905-2.168-1.905zm-38.357.478c-2.448-.407-3.15-.495-4.328-.495-2.116 0-2.756.447-2.756 2.193v3.29c0 1.742.638 2.193 2.756 2.193 1.179 0 1.88-.088 4.328-.495v3.721c-2.144.469-3.54.591-4.721.591-5.068 0-7.082-2.582-7.082-6.314v-2.671c0-3.74 2.014-6.327 7.082-6.327 1.18 0 2.577.124 4.721.593zm14.773 4.687h-8.656v.3c0 1.743.638 2.194 2.754 2.194 1.904 0 3.06-.088 5.505-.495v3.721c-2.355.469-3.583.591-5.896.591-5.064 0-7.068-2.582-7.068-6.314v-3.06c0-3.267 1.494-5.943 6.685-5.943 5.2 0 6.685 2.644 6.685 5.943v3.06zm38.697-5.165c-1.603 0-2.159.85-2.159 1.898v3.861c0 1.062.556 1.91 2.159 1.91 1.603 0 2.167-.848 2.167-1.91V12.76c0-1.056-.564-1.907-2.167-1.907zm22.399 11.285h-5.113l-4.328-7.004v7.004h-4.718V1.141l4.718-.76v13.521l4.326-6.65h5.101l-4.727 7.252 4.723 7.64zM44.671 10.474c-1.603 0-1.967.85-1.967 1.91v.59h3.935v-.595c0-1.043-.365-1.9-1.968-1.9zM66.705 16.1c0 3.608-1.075 6.244-7.523 6.244-2.325 0-3.69-.202-6.259-.584V1.137l4.718-.76v7.21c1.02-.367 2.34-.553 3.543-.553 4.717 0 5.5 2.052 5.5 5.347v3.732z" clip-rule="evenodd" fill-rule="evenodd"/></symbol><symbol viewBox="0 0 26.421 16.5" id="files" xmlns="http://www.w3.org/2000/svg"><path d="M19.004 15.25H1.25v-14h10.088l1.614 3.161h6.052v1.807m0 9.032l5.246-9.032h-5.246m0 9.032V6.218"/></symbol><symbol viewBox="0 -87 463.837 288.046" id="logo" xmlns="http://www.w3.org/2000/svg"><path d="M375.837 25.148a87.89 87.89 0 00-17.426 1.743 71.862 71.862 0 00-100.648-51.094C239.685-74 184.661-99.711 134.865-81.633 85.068-63.555 59.357-8.527 77.435 41.266 33.814 42.644-.643 78.75.009 122.386c.656 43.641 36.184 78.692 79.828 78.762h296c48.598 0 88-39.398 88-88 0-48.601-39.402-88-88-88zm0 0"/></symbol><symbol viewBox="0 0 16.51 12.865" id="medium" xmlns="http://www.w3.org/2000/svg"><path d="M16.51 1.896h-.653c-.242 0-.585.344-.585.564v7.988c0 .22.343.521.585.521h.653v1.896h-5.916v-1.896h1.238V2.573h-.06L8.88 12.865H6.641L3.787 2.573h-.072v8.396h1.238v1.896H0v-1.896h.634c.261 0 .604-.3.604-.521V2.46c0-.22-.343-.564-.604-.564H0V0h6.194l2.033 7.448h.056L10.335 0h6.175z"/></symbol><symbol viewBox="0 -53 384 384" id="menu" xmlns="http://www.w3.org/2000/svg"><path d="M368 154.668H16c-8.832 0-16-7.168-16-16s7.168-16 16-16h352c8.832 0 16 7.168 16 16s-7.168 16-16 16zM368 32H16C7.168 32 0 24.832 0 16S7.168 0 16 0h352c8.832 0 16 7.168 16 16s-7.168 16-16 16zm0 245.332H16c-8.832 0-16-7.168-16-16s7.168-16 16-16h352c8.832 0 16 7.168 16 16s-7.168 16-16 16zm0 0"/></symbol><symbol viewBox="0 0 18 21" id="overview" xmlns="http://www.w3.org/2000/svg"><path d="M2 7.873V19h4.421L9 17l2.579 2H16V7.873L9 2 2 7.873z"/></symbol><symbol viewBox="0 0 21 19" id="save" xmlns="http://www.w3.org/2000/svg"><path d="M2 11.968V17.5h17.254v-5.532M6.754 5l4-3m4 3l-4-3m0 0v10.5"/></symbol><symbol viewBox="0 0 512.005 512.005" id="search" xmlns="http://www.w3.org/2000/svg"><path d="M505.749 475.587l-145.6-145.6c28.203-34.837 45.184-79.104 45.184-127.317C405.333 90.926 314.41.003 202.666.003S0 90.925 0 202.669s90.923 202.667 202.667 202.667c48.213 0 92.48-16.981 127.317-45.184l145.6 145.6c4.16 4.16 9.621 6.251 15.083 6.251s10.923-2.091 15.083-6.251c8.341-8.341 8.341-21.824-.001-30.165zM202.667 362.669c-88.235 0-160-71.765-160-160s71.765-160 160-160 160 71.765 160 160-71.766 160-160 160z"/></symbol><symbol viewBox="0 0 26.043 18.03" id="slide-arrow" xmlns="http://www.w3.org/2000/svg"><path d="M24.521 9.015h-23m0 0l7.812 7.5m-7.812-7.5l7.812-7.5"/></symbol><symbol viewBox="0 0 0 0" id="sprite" xmlns="http://www.w3.org/2000/svg"/><symbol viewBox="0 0 14.696 11.79" id="telegram" xmlns="http://www.w3.org/2000/svg"><path d="M5.527 11.076c-.437 0-.363-.158-.514-.557L3.726 6.466l9.91-5.624"/><path d="M5.528 11.076c.337 0 .487-.148.675-.323l1.802-1.676L5.758 7.78"/><path d="M5.757 7.78l5.446 3.85c.622.327 1.07.158 1.225-.553l2.217-9.992c.227-.87-.347-1.265-.941-1.007L.686 4.879c-.888.341-.883.815-.162 1.027l3.34.997L11.6 2.236c.365-.212.7-.098.425.135"/></symbol><symbol viewBox="0 0 16.51 13.784" id="twitter" xmlns="http://www.w3.org/2000/svg"><path d="M16.51 1.63a6.642 6.642 0 01-1.946.548A3.477 3.477 0 0016.053.253a6.673 6.673 0 01-2.151.844A3.34 3.34 0 0011.43 0C9.56 0 8.043 1.558 8.043 3.48c0 .273.03.538.087.793C5.315 4.127 2.82 2.74 1.148.637A3.536 3.536 0 00.69 2.386c0 1.207.598 2.272 1.506 2.896a3.308 3.308 0 01-1.534-.436v.044c0 1.687 1.17 3.093 2.717 3.413a3.3 3.3 0 01-1.528.06c.43 1.382 1.682 2.388 3.164 2.416A6.686 6.686 0 010 12.22a9.402 9.402 0 005.192 1.564c6.23 0 9.637-5.303 9.637-9.901 0-.151-.003-.3-.01-.45A6.976 6.976 0 0016.51 1.63" clip-rule="evenodd" fill-rule="evenodd"/></symbol><symbol viewBox="0 0 74.5 66.029" id="users" xmlns="http://www.w3.org/2000/svg"><ellipse cx="28.625" cy="17.5" rx="15.637" ry="15.5"/><path d="M55.25 64c0-14.344-11.92-25.973-26.625-25.973C13.921 38.027 2 49.656 2 64"/><ellipse cx="62.012" cy="20.223" rx="6.453" ry="6.493"/><path d="M73 39.703c0-6.01-4.92-10.88-10.988-10.88-6.069 0-10.988 4.87-10.988 10.88"/></symbol></svg>