<?xml version="1.0" encoding="UTF-8" standalone="no"?>
<svg
   xmlns:dc="http://purl.org/dc/elements/1.1/"
   xmlns:cc="http://creativecommons.org/ns#"
   xmlns:rdf="http://www.w3.org/1999/02/22-rdf-syntax-ns#"
   xmlns:svg="http://www.w3.org/2000/svg"
   xmlns="http://www.w3.org/2000/svg"
   xmlns:sodipodi="http://sodipodi.sourceforge.net/DTD/sodipodi-0.dtd"
   xmlns:inkscape="http://www.inkscape.org/namespaces/inkscape"
   width="14.695912"
   height="11.789924"
   viewBox="0 0 14.695912 11.789924"
   version="1.1"
   id="svg8"
   sodipodi:docname="telegram.svg"
   style="fill:none"
   inkscape:version="0.92.4 (5da689c313, 2019-01-14)">
  <metadata
     id="metadata14">
    <rdf:RDF>
      <cc:Work
         rdf:about="">
        <dc:format>image/svg+xml</dc:format>
        <dc:type
           rdf:resource="http://purl.org/dc/dcmitype/StillImage" />
      </cc:Work>
    </rdf:RDF>
  </metadata>
  <defs
     id="defs12" />
  <sodipodi:namedview
     pagecolor="#ffffff"
     bordercolor="#666666"
     borderopacity="1"
     objecttolerance="10"
     gridtolerance="10"
     guidetolerance="10"
     inkscape:pageopacity="0"
     inkscape:pageshadow="2"
     inkscape:window-width="640"
     inkscape:window-height="480"
     id="namedview10"
     showgrid="false"
     inkscape:zoom="18.153846"
     inkscape:cx="7.2077637"
     inkscape:cy="5.9478375"
     inkscape:window-x="0"
     inkscape:window-y="0"
     inkscape:window-maximized="0"
     inkscape:current-layer="svg8" />
  <path
     d="m 5.5274837,11.075723 c -0.43781,0 -0.36342,-0.1581 -0.51442,-0.5568 L 3.7255837,6.4659629 13.636064,0.84235291"
     id="path2"
     inkscape:connector-curvature="0"
     style="fill:#9399ab" />
  <path
     d="m 5.5275837,11.075723 c 0.33786,0 0.48714,-0.1478 0.67572,-0.3232 l 1.8019,-1.6759001 -2.24765,-1.29638"
     id="path4"
     inkscape:connector-curvature="0"
     style="fill:#70788e" />
  <path
     d="m 5.7572137,7.7805829 5.4462503,3.8487401 c 0.6215,0.328 1.07,0.1582 1.2248,-0.5519 l 2.2169,-9.9924401 c 0.227,-0.87039999 -0.3468,-1.26516999 -0.9414,-1.00698999 L 0.68616774,4.8791829 c -0.8885738,0.3409 -0.8833935,0.81507 -0.161968,1.02635 l 3.34061396,0.99731 7.7338503,-4.66697 c 0.3651,-0.21177 0.7002,-0.09792 0.4252,0.13556"
     id="path6"
     inkscape:connector-curvature="0"
     style="fill:#b6bac7" />
</svg>
